<?xml version="1.0" encoding="UTF-8" standalone="no"?>
<!DOCTYPE svg PUBLIC "-//W3C//DTD SVG 1.1//EN"
 "http://www.w3.org/Graphics/SVG/1.1/DTD/svg11.dtd">
<!-- Generated by graphviz version 2.40.1 (20161225.0304)
 -->
<!-- Title: dependencies Pages: 1 -->
<svg width="5194pt" height="366pt"
 viewBox="0.00 0.00 5194.00 366.00" xmlns="http://www.w3.org/2000/svg" xmlns:xlink="http://www.w3.org/1999/xlink">
<g id="graph0" class="graph" transform="scale(1 1) rotate(0) translate(4 362)">
<title>dependencies</title>
<polygon fill="#ffffff" stroke="transparent" points="-4,4 -4,-362 5190,-362 5190,4 -4,4"/>
<text text-anchor="start" x="2572.0091" y="-42.4" font-family="sans-serif" font-weight="bold" font-size="14.00" fill="#000000">Legend</text>
<polygon fill="#ffffb3" stroke="transparent" points="2359,-10 2359,-30 2379,-30 2379,-10 2359,-10"/>
<text text-anchor="start" x="2382.629" y="-15.4" font-family="sans-serif" font-size="14.00" fill="#000000"> &#160;Declarations</text>
<polygon fill="#8dd3c7" stroke="transparent" points="2472,-10 2472,-30 2492,-30 2492,-10 2472,-10"/>
<text text-anchor="start" x="2495.7251" y="-15.4" font-family="sans-serif" font-size="14.00" fill="#000000"> &#160;Module</text>
<polygon fill="#80b1d3" stroke="transparent" points="2558,-10 2558,-30 2578,-30 2578,-10 2558,-10"/>
<text text-anchor="start" x="2581.7812" y="-15.4" font-family="sans-serif" font-size="14.00" fill="#000000"> &#160;Bootstrap</text>
<polygon fill="#fdb462" stroke="transparent" points="2655,-10 2655,-30 2675,-30 2675,-10 2655,-10"/>
<text text-anchor="start" x="2678.6732" y="-15.4" font-family="sans-serif" font-size="14.00" fill="#000000"> &#160;Providers</text>
<polygon fill="#fb8072" stroke="transparent" points="2751,-10 2751,-30 2771,-30 2771,-10 2751,-10"/>
<text text-anchor="start" x="2774.7258" y="-15.4" font-family="sans-serif" font-size="14.00" fill="#000000"> &#160;Exports</text>
<g id="clust1" class="cluster">
<title>cluster_AppModule</title>
<polygon fill="none" stroke="#000000" stroke-dasharray="1,5" points="8,-70 8,-282 298,-282 298,-70 8,-70"/>
</g>
<g id="clust2" class="cluster">
<title>cluster_AppModule_declarations</title>
<polygon fill="none" stroke="#000000" points="168,-78 168,-130 290,-130 290,-78 168,-78"/>
</g>
<g id="clust4" class="cluster">
<title>cluster_AppModule_imports</title>
<polygon fill="none" stroke="#000000" points="16,-78 16,-130 160,-130 160,-78 16,-78"/>
</g>
<g id="clust6" class="cluster">
<title>cluster_AppModule_bootstrap</title>
<polygon fill="none" stroke="#000000" points="96,-222 96,-274 220,-274 220,-222 96,-222"/>
</g>
<g id="clust14" class="cluster">
<title>cluster_CareModule</title>
<polygon fill="none" stroke="#000000" stroke-dasharray="1,5" points="306,-146 306,-350 1203,-350 1203,-146 306,-146"/>
</g>
<g id="clust15" class="cluster">
<title>cluster_CareModule_declarations</title>
<polygon fill="none" stroke="#000000" points="314,-154 314,-206 1195,-206 1195,-154 314,-154"/>
</g>
<g id="clust22" class="cluster">
<title>cluster_CareModule_exports</title>
<polygon fill="none" stroke="#000000" points="787,-290 787,-342 915,-342 915,-290 787,-290"/>
</g>
<g id="clust25" class="cluster">
<title>cluster_DecourseModule</title>
<polygon fill="none" stroke="#000000" stroke-dasharray="1,5" points="2961,-70 2961,-282 3340,-282 3340,-70 2961,-70"/>
</g>
<g id="clust26" class="cluster">
<title>cluster_DecourseModule_declarations</title>
<polygon fill="none" stroke="#000000" points="2969,-78 2969,-130 3332,-130 3332,-78 2969,-78"/>
</g>
<g id="clust30" class="cluster">
<title>cluster_DecourseModule_exports</title>
<polygon fill="none" stroke="#000000" points="2969,-222 2969,-274 3123,-274 3123,-222 2969,-222"/>
</g>
<g id="clust33" class="cluster">
<title>cluster_DetectionPageModule</title>
<polygon fill="none" stroke="#000000" stroke-dasharray="1,5" points="2597,-146 2597,-350 2953,-350 2953,-146 2597,-146"/>
</g>
<g id="clust34" class="cluster">
<title>cluster_DetectionPageModule_declarations</title>
<polygon fill="none" stroke="#000000" points="2605,-154 2605,-206 2945,-206 2945,-154 2605,-154"/>
</g>
<g id="clust38" class="cluster">
<title>cluster_DetectionPageModule_exports</title>
<polygon fill="none" stroke="#000000" points="2684,-290 2684,-342 2866,-342 2866,-290 2684,-290"/>
</g>
<g id="clust41" class="cluster">
<title>cluster_DeviceAddPageModule</title>
<polygon fill="none" stroke="#000000" stroke-dasharray="1,5" points="3548,-70 3548,-206 3714,-206 3714,-70 3548,-70"/>
</g>
<g id="clust42" class="cluster">
<title>cluster_DeviceAddPageModule_declarations</title>
<polygon fill="none" stroke="#000000" points="3570,-78 3570,-130 3692,-130 3692,-78 3570,-78"/>
</g>
<g id="clust48" class="cluster">
<title>cluster_DeviceDetailsPageModule</title>
<polygon fill="none" stroke="#000000" stroke-dasharray="1,5" points="3722,-70 3722,-206 3904,-206 3904,-70 3722,-70"/>
</g>
<g id="clust49" class="cluster">
<title>cluster_DeviceDetailsPageModule_declarations</title>
<polygon fill="none" stroke="#000000" points="3744,-78 3744,-130 3882,-130 3882,-78 3744,-78"/>
</g>
<g id="clust55" class="cluster">
<title>cluster_DeviceListPageModule</title>
<polygon fill="none" stroke="#000000" stroke-dasharray="1,5" points="3912,-70 3912,-282 4076,-282 4076,-70 3912,-70"/>
</g>
<g id="clust56" class="cluster">
<title>cluster_DeviceListPageModule_declarations</title>
<polygon fill="none" stroke="#000000" points="3934,-78 3934,-130 4054,-130 4054,-78 3934,-78"/>
</g>
<g id="clust59" class="cluster">
<title>cluster_DeviceListPageModule_exports</title>
<polygon fill="none" stroke="#000000" points="3932,-222 3932,-274 4056,-274 4056,-222 3932,-222"/>
</g>
<g id="clust74" class="cluster">
<title>cluster_MainPageModule</title>
<polygon fill="none" stroke="#000000" stroke-dasharray="1,5" points="4084,-70 4084,-206 4216,-206 4216,-70 4084,-70"/>
</g>
<g id="clust75" class="cluster">
<title>cluster_MainPageModule_declarations</title>
<polygon fill="none" stroke="#000000" points="4106,-78 4106,-130 4194,-130 4194,-78 4106,-78"/>
</g>
<g id="clust81" class="cluster">
<title>cluster_MedicalChartModule</title>
<polygon fill="none" stroke="#000000" stroke-dasharray="1,5" points="1401,-146 1401,-350 2589,-350 2589,-146 1401,-146"/>
</g>
<g id="clust82" class="cluster">
<title>cluster_MedicalChartModule_declarations</title>
<polygon fill="none" stroke="#000000" points="1571,-154 1571,-206 2581,-206 2581,-154 1571,-154"/>
</g>
<g id="clust88" class="cluster">
<title>cluster_MedicalChartModule_imports</title>
<polygon fill="none" stroke="#000000" points="1409,-154 1409,-206 1563,-206 1563,-154 1409,-154"/>
</g>
<g id="clust89" class="cluster">
<title>cluster_MedicalChartModule_exports</title>
<polygon fill="none" stroke="#000000" points="1753,-290 1753,-342 1931,-342 1931,-290 1753,-290"/>
</g>
<g id="clust92" class="cluster">
<title>cluster_ObservationListPageModule</title>
<polygon fill="none" stroke="#000000" stroke-dasharray="1,5" points="3348,-146 3348,-274 3540,-274 3540,-146 3348,-146"/>
</g>
<g id="clust93" class="cluster">
<title>cluster_ObservationListPageModule_declarations</title>
<polygon fill="none" stroke="#000000" points="3369,-154 3369,-206 3519,-206 3519,-154 3369,-154"/>
</g>
<g id="clust100" class="cluster">
<title>cluster_PatientAddPageModule</title>
<polygon fill="none" stroke="#000000" stroke-dasharray="1,5" points="4224,-70 4224,-206 4390,-206 4390,-70 4224,-70"/>
</g>
<g id="clust101" class="cluster">
<title>cluster_PatientAddPageModule_declarations</title>
<polygon fill="none" stroke="#000000" points="4246,-78 4246,-130 4368,-130 4368,-78 4246,-78"/>
</g>
<g id="clust107" class="cluster">
<title>cluster_PatientDetailsPageModule</title>
<polygon fill="none" stroke="#000000" stroke-dasharray="1,5" points="1211,-214 1211,-342 1393,-342 1393,-214 1211,-214"/>
</g>
<g id="clust108" class="cluster">
<title>cluster_PatientDetailsPageModule_declarations</title>
<polygon fill="none" stroke="#000000" points="1233,-222 1233,-274 1371,-274 1371,-222 1233,-222"/>
</g>
<g id="clust114" class="cluster">
<title>cluster_PatientListPageModule</title>
<polygon fill="none" stroke="#000000" stroke-dasharray="1,5" points="4398,-70 4398,-206 4562,-206 4562,-70 4398,-70"/>
</g>
<g id="clust115" class="cluster">
<title>cluster_PatientListPageModule_declarations</title>
<polygon fill="none" stroke="#000000" points="4420,-78 4420,-130 4540,-130 4540,-78 4420,-78"/>
</g>
<g id="clust121" class="cluster">
<title>cluster_PipesModule</title>
<polygon fill="none" stroke="#000000" stroke-dasharray="1,5" points="4570,-70 4570,-282 4732,-282 4732,-70 4570,-70"/>
</g>
<g id="clust122" class="cluster">
<title>cluster_PipesModule_declarations</title>
<polygon fill="none" stroke="#000000" points="4580,-78 4580,-130 4722,-130 4722,-78 4580,-78"/>
</g>
<g id="clust125" class="cluster">
<title>cluster_PipesModule_exports</title>
<polygon fill="none" stroke="#000000" points="4578,-222 4578,-274 4724,-274 4724,-222 4578,-222"/>
</g>
<g id="clust128" class="cluster">
<title>cluster_ProfilePageModule</title>
<polygon fill="none" stroke="#000000" stroke-dasharray="1,5" points="4740,-70 4740,-206 4880,-206 4880,-70 4740,-70"/>
</g>
<g id="clust129" class="cluster">
<title>cluster_ProfilePageModule_declarations</title>
<polygon fill="none" stroke="#000000" points="4761,-78 4761,-130 4859,-130 4859,-78 4761,-78"/>
</g>
<g id="clust135" class="cluster">
<title>cluster_SettingsPageModule</title>
<polygon fill="none" stroke="#000000" stroke-dasharray="1,5" points="4888,-70 4888,-206 5036,-206 5036,-70 4888,-70"/>
</g>
<g id="clust136" class="cluster">
<title>cluster_SettingsPageModule_declarations</title>
<polygon fill="none" stroke="#000000" points="4910,-78 4910,-130 5014,-130 5014,-78 4910,-78"/>
</g>
<g id="clust142" class="cluster">
<title>cluster_SleepPageModule</title>
<polygon fill="none" stroke="#000000" stroke-dasharray="1,5" points="5044,-70 5044,-206 5178,-206 5178,-70 5044,-70"/>
</g>
<g id="clust143" class="cluster">
<title>cluster_SleepPageModule_declarations</title>
<polygon fill="none" stroke="#000000" points="5066,-78 5066,-130 5156,-130 5156,-78 5066,-78"/>
</g>
<g id="clust149" class="cluster">
<title>cluster_SpecificDatasModule</title>
<polygon fill="none" stroke="#000000" stroke-dasharray="1,5" points="1204,-70 1204,-138 1752,-138 1752,-70 1204,-70"/>
</g>
<g id="clust150" class="cluster">
<title>cluster_SpecificDatasModule_declarations</title>
<polygon fill="none" stroke="#000000" points="1398,-78 1398,-130 1744,-130 1744,-78 1398,-78"/>
</g>
<g id="clust154" class="cluster">
<title>cluster_SpecificDatasModule_exports</title>
<polygon fill="none" stroke="#000000" points="1212,-78 1212,-130 1390,-130 1390,-78 1212,-78"/>
</g>
<!-- AppComponent -->
<g id="node1" class="node">
<title>AppComponent</title>
<polygon fill="#ffffb3" stroke="#000000" points="281.9399,-122 176.0601,-122 176.0601,-86 281.9399,-86 281.9399,-122"/>
<text text-anchor="middle" x="229" y="-99.8" font-family="Times,serif" font-size="14.00" fill="#000000">AppComponent</text>
</g>
<!-- AppModule -->
<g id="node2" class="node">
<title>AppModule</title>
<polygon fill="#8dd3c7" stroke="#000000" points="199.6571,-198 196.6571,-202 175.6571,-202 172.6571,-198 116.3429,-198 116.3429,-162 199.6571,-162 199.6571,-198"/>
<text text-anchor="middle" x="158" y="-175.8" font-family="Times,serif" font-size="14.00" fill="#000000">AppModule</text>
</g>
<!-- AppComponent&#45;&gt;AppModule -->
<g id="edge1" class="edge">
<title>AppComponent&#45;&gt;AppModule</title>
<path fill="none" stroke="#000000" d="M188.0544,-122.0109C188.0544,-122.0109 188.0544,-151.855 188.0544,-151.855"/>
<polygon fill="#000000" stroke="#000000" points="184.5544,-151.8549 188.0544,-161.855 191.5544,-151.855 184.5544,-151.8549"/>
</g>
<!-- AppComponent  -->
<g id="node4" class="node">
<title>AppComponent </title>
<polygon fill="#80b1d3" stroke="#000000" points="212.439,-266 103.561,-266 103.561,-230 212.439,-230 212.439,-266"/>
<text text-anchor="middle" x="158" y="-243.8" font-family="Times,serif" font-size="14.00" fill="#000000">AppComponent </text>
</g>
<!-- AppModule&#45;&gt;AppComponent  -->
<g id="edge3" class="edge">
<title>AppModule&#45;&gt;AppComponent </title>
<path fill="none" stroke="#000000" stroke-dasharray="1,5" d="M158,-198.2228C158,-198.2228 158,-219.7269 158,-219.7269"/>
<polygon fill="#000000" stroke="#000000" points="154.5001,-219.7269 158,-229.7269 161.5001,-219.727 154.5001,-219.7269"/>
</g>
<!-- AppRoutingModule -->
<g id="node3" class="node">
<title>AppRoutingModule</title>
<polygon fill="#8dd3c7" stroke="#000000" points="152.2744,-122 149.2744,-126 128.2744,-126 125.2744,-122 23.7256,-122 23.7256,-86 152.2744,-86 152.2744,-122"/>
<text text-anchor="middle" x="88" y="-99.8" font-family="Times,serif" font-size="14.00" fill="#000000">AppRoutingModule</text>
</g>
<!-- AppRoutingModule&#45;&gt;AppModule -->
<g id="edge2" class="edge">
<title>AppRoutingModule&#45;&gt;AppModule</title>
<path fill="none" stroke="#000000" d="M134.2795,-122.0109C134.2795,-122.0109 134.2795,-151.855 134.2795,-151.855"/>
<polygon fill="#000000" stroke="#000000" points="130.7795,-151.8549 134.2795,-161.855 137.7795,-151.855 130.7795,-151.8549"/>
</g>
<!-- CareComponent -->
<g id="node5" class="node">
<title>CareComponent</title>
<polygon fill="#ffffb3" stroke="#000000" points="828.7591,-198 721.2409,-198 721.2409,-162 828.7591,-162 828.7591,-198"/>
<text text-anchor="middle" x="775" y="-175.8" font-family="Times,serif" font-size="14.00" fill="#000000">CareComponent</text>
</g>
<!-- CareModule -->
<g id="node10" class="node">
<title>CareModule</title>
<polygon fill="#8dd3c7" stroke="#000000" points="893.9762,-266 890.9762,-270 869.9762,-270 866.9762,-266 808.0238,-266 808.0238,-230 893.9762,-230 893.9762,-266"/>
<text text-anchor="middle" x="851" y="-243.8" font-family="Times,serif" font-size="14.00" fill="#000000">CareModule</text>
</g>
<!-- CareComponent&#45;&gt;CareModule -->
<g id="edge4" class="edge">
<title>CareComponent&#45;&gt;CareModule</title>
<path fill="none" stroke="#000000" d="M818.4457,-198.2228C818.4457,-198.2228 818.4457,-219.7269 818.4457,-219.7269"/>
<polygon fill="#000000" stroke="#000000" points="814.9457,-219.7269 818.4457,-229.7269 821.9457,-219.727 814.9457,-219.7269"/>
</g>
<!-- CarePlanAddModalComponent -->
<g id="node6" class="node">
<title>CarePlanAddModalComponent</title>
<polygon fill="#ffffb3" stroke="#000000" points="702.8032,-198 509.1968,-198 509.1968,-162 702.8032,-162 702.8032,-198"/>
<text text-anchor="middle" x="606" y="-175.8" font-family="Times,serif" font-size="14.00" fill="#000000">CarePlanAddModalComponent</text>
</g>
<!-- CarePlanAddModalComponent&#45;&gt;CareModule -->
<g id="edge5" class="edge">
<title>CarePlanAddModalComponent&#45;&gt;CareModule</title>
<path fill="none" stroke="#000000" d="M606,-198.2667C606,-216.5552 606,-242 606,-242 606,-242 797.7629,-242 797.7629,-242"/>
<polygon fill="#000000" stroke="#000000" points="797.7629,-245.5001 807.7629,-242 797.7629,-238.5001 797.7629,-245.5001"/>
</g>
<!-- GoalAddModalComponent -->
<g id="node7" class="node">
<title>GoalAddModalComponent</title>
<polygon fill="#ffffb3" stroke="#000000" points="491.7007,-198 322.2993,-198 322.2993,-162 491.7007,-162 491.7007,-198"/>
<text text-anchor="middle" x="407" y="-175.8" font-family="Times,serif" font-size="14.00" fill="#000000">GoalAddModalComponent</text>
</g>
<!-- GoalAddModalComponent&#45;&gt;CareModule -->
<g id="edge6" class="edge">
<title>GoalAddModalComponent&#45;&gt;CareModule</title>
<path fill="none" stroke="#000000" d="M407,-198.2921C407,-220.2057 407,-254 407,-254 407,-254 797.619,-254 797.619,-254"/>
<polygon fill="#000000" stroke="#000000" points="797.619,-257.5001 807.619,-254 797.619,-250.5001 797.619,-257.5001"/>
</g>
<!-- OdAddModalComponent -->
<g id="node8" class="node">
<title>OdAddModalComponent</title>
<polygon fill="#ffffb3" stroke="#000000" points="1186.5954,-198 1027.4046,-198 1027.4046,-162 1186.5954,-162 1186.5954,-198"/>
<text text-anchor="middle" x="1107" y="-175.8" font-family="Times,serif" font-size="14.00" fill="#000000">OdAddModalComponent</text>
</g>
<!-- OdAddModalComponent&#45;&gt;CareModule -->
<g id="edge7" class="edge">
<title>OdAddModalComponent&#45;&gt;CareModule</title>
<path fill="none" stroke="#000000" d="M1107,-198.2667C1107,-216.5552 1107,-242 1107,-242 1107,-242 904.1374,-242 904.1374,-242"/>
<polygon fill="#000000" stroke="#000000" points="904.1375,-238.5001 894.1374,-242 904.1374,-245.5001 904.1375,-238.5001"/>
</g>
<!-- RequestModalComponent -->
<g id="node9" class="node">
<title>RequestModalComponent</title>
<polygon fill="#ffffb3" stroke="#000000" points="1009.4832,-198 846.5168,-198 846.5168,-162 1009.4832,-162 1009.4832,-198"/>
<text text-anchor="middle" x="928" y="-175.8" font-family="Times,serif" font-size="14.00" fill="#000000">RequestModalComponent</text>
</g>
<!-- RequestModalComponent&#45;&gt;CareModule -->
<g id="edge8" class="edge">
<title>RequestModalComponent&#45;&gt;CareModule</title>
<path fill="none" stroke="#000000" d="M870.2483,-198.2228C870.2483,-198.2228 870.2483,-219.7269 870.2483,-219.7269"/>
<polygon fill="#000000" stroke="#000000" points="866.7483,-219.7269 870.2483,-229.7269 873.7483,-219.727 866.7483,-219.7269"/>
</g>
<!-- CareComponent  -->
<g id="node11" class="node">
<title>CareComponent </title>
<polygon fill="#fb8072" stroke="#000000" points="906.7591,-334 795.2409,-334 795.2409,-298 906.7591,-298 906.7591,-334"/>
<text text-anchor="middle" x="851" y="-311.8" font-family="Times,serif" font-size="14.00" fill="#000000">CareComponent </text>
</g>
<!-- CareModule&#45;&gt;CareComponent  -->
<g id="edge9" class="edge">
<title>CareModule&#45;&gt;CareComponent </title>
<path fill="none" stroke="#000000" stroke-dasharray="5,2" d="M851,-266.2228C851,-266.2228 851,-287.7269 851,-287.7269"/>
<polygon fill="#000000" stroke="#000000" points="847.5001,-287.7269 851,-297.7269 854.5001,-287.727 847.5001,-287.7269"/>
</g>
<!-- PatientDetailsPageModule -->
<g id="node42" class="node">
<title>PatientDetailsPageModule</title>
<polygon fill="#8dd3c7" stroke="#000000" points="1384.7977,-334 1381.7977,-338 1360.7977,-338 1357.7977,-334 1219.2023,-334 1219.2023,-298 1384.7977,-298 1384.7977,-334"/>
<text text-anchor="middle" x="1302" y="-311.8" font-family="Times,serif" font-size="14.00" fill="#000000">PatientDetailsPageModule</text>
</g>
<!-- CareModule&#45;&gt;PatientDetailsPageModule -->
<g id="edge33" class="edge">
<title>CareModule&#45;&gt;PatientDetailsPageModule</title>
<path fill="none" stroke="#000000" d="M894.1549,-254C993.6006,-254 1230.4202,-254 1230.4202,-254 1230.4202,-254 1230.4202,-287.7333 1230.4202,-287.7333"/>
<polygon fill="#000000" stroke="#000000" points="1226.9203,-287.7333 1230.4202,-297.7333 1233.9203,-287.7333 1226.9203,-287.7333"/>
</g>
<!-- DecourseAddModalComponent -->
<g id="node12" class="node">
<title>DecourseAddModalComponent</title>
<polygon fill="#ffffb3" stroke="#000000" points="3324.3445,-122 3129.6555,-122 3129.6555,-86 3324.3445,-86 3324.3445,-122"/>
<text text-anchor="middle" x="3227" y="-99.8" font-family="Times,serif" font-size="14.00" fill="#000000">DecourseAddModalComponent</text>
</g>
<!-- DecourseModule -->
<g id="node14" class="node">
<title>DecourseModule</title>
<polygon fill="#8dd3c7" stroke="#000000" points="3101.4061,-198 3098.4061,-202 3077.4061,-202 3074.4061,-198 2988.5939,-198 2988.5939,-162 3101.4061,-162 3101.4061,-198"/>
<text text-anchor="middle" x="3045" y="-175.8" font-family="Times,serif" font-size="14.00" fill="#000000">DecourseModule</text>
</g>
<!-- DecourseAddModalComponent&#45;&gt;DecourseModule -->
<g id="edge10" class="edge">
<title>DecourseAddModalComponent&#45;&gt;DecourseModule</title>
<path fill="none" stroke="#000000" d="M3227,-122.0109C3227,-144.4852 3227,-180 3227,-180 3227,-180 3111.5883,-180 3111.5883,-180"/>
<polygon fill="#000000" stroke="#000000" points="3111.5883,-176.5001 3101.5883,-180 3111.5883,-183.5001 3111.5883,-176.5001"/>
</g>
<!-- DecourseComponent -->
<g id="node13" class="node">
<title>DecourseComponent</title>
<polygon fill="#ffffb3" stroke="#000000" points="3111.1881,-122 2976.8119,-122 2976.8119,-86 3111.1881,-86 3111.1881,-122"/>
<text text-anchor="middle" x="3044" y="-99.8" font-family="Times,serif" font-size="14.00" fill="#000000">DecourseComponent</text>
</g>
<!-- DecourseComponent&#45;&gt;DecourseModule -->
<g id="edge11" class="edge">
<title>DecourseComponent&#45;&gt;DecourseModule</title>
<path fill="none" stroke="#000000" d="M3045,-122.0109C3045,-122.0109 3045,-151.855 3045,-151.855"/>
<polygon fill="#000000" stroke="#000000" points="3041.5001,-151.8549 3045,-161.855 3048.5001,-151.855 3041.5001,-151.8549"/>
</g>
<!-- DecourseComponent  -->
<g id="node15" class="node">
<title>DecourseComponent </title>
<polygon fill="#fb8072" stroke="#000000" points="3114.6884,-266 2977.3116,-266 2977.3116,-230 3114.6884,-230 3114.6884,-266"/>
<text text-anchor="middle" x="3046" y="-243.8" font-family="Times,serif" font-size="14.00" fill="#000000">DecourseComponent </text>
</g>
<!-- DecourseModule&#45;&gt;DecourseComponent  -->
<g id="edge12" class="edge">
<title>DecourseModule&#45;&gt;DecourseComponent </title>
<path fill="none" stroke="#000000" stroke-dasharray="5,2" d="M3045,-198.2228C3045,-198.2228 3045,-219.7269 3045,-219.7269"/>
<polygon fill="#000000" stroke="#000000" points="3041.5001,-219.7269 3045,-229.7269 3048.5001,-219.727 3041.5001,-219.7269"/>
</g>
<!-- DetectionPageModule -->
<g id="node18" class="node">
<title>DetectionPageModule</title>
<polygon fill="#8dd3c7" stroke="#000000" points="2845.6839,-266 2842.6839,-270 2821.6839,-270 2818.6839,-266 2704.3161,-266 2704.3161,-230 2845.6839,-230 2845.6839,-266"/>
<text text-anchor="middle" x="2775" y="-243.8" font-family="Times,serif" font-size="14.00" fill="#000000">DetectionPageModule</text>
</g>
<!-- DecourseModule&#45;&gt;DetectionPageModule -->
<g id="edge15" class="edge">
<title>DecourseModule&#45;&gt;DetectionPageModule</title>
<path fill="none" stroke="#000000" d="M2988.6661,-180C2971.3876,-180 2956.8373,-180 2956.8373,-180 2956.8373,-180 2956.8373,-248 2956.8373,-248 2956.8373,-248 2855.8237,-248 2855.8237,-248"/>
<polygon fill="#000000" stroke="#000000" points="2855.8238,-244.5001 2845.8237,-248 2855.8237,-251.5001 2855.8238,-244.5001"/>
</g>
<!-- DetectionPageComponent -->
<g id="node16" class="node">
<title>DetectionPageComponent</title>
<polygon fill="#ffffb3" stroke="#000000" points="2775.4664,-198 2612.5336,-198 2612.5336,-162 2775.4664,-162 2775.4664,-198"/>
<text text-anchor="middle" x="2694" y="-175.8" font-family="Times,serif" font-size="14.00" fill="#000000">DetectionPageComponent</text>
</g>
<!-- DetectionPageComponent&#45;&gt;DetectionPageModule -->
<g id="edge13" class="edge">
<title>DetectionPageComponent&#45;&gt;DetectionPageModule</title>
<path fill="none" stroke="#000000" d="M2739.9457,-198.2228C2739.9457,-198.2228 2739.9457,-219.7269 2739.9457,-219.7269"/>
<polygon fill="#000000" stroke="#000000" points="2736.4457,-219.7269 2739.9457,-229.7269 2743.4457,-219.727 2736.4457,-219.7269"/>
</g>
<!-- SleepChartComponent -->
<g id="node17" class="node">
<title>SleepChartComponent</title>
<polygon fill="#ffffb3" stroke="#000000" points="2936.5379,-198 2793.4621,-198 2793.4621,-162 2936.5379,-162 2936.5379,-198"/>
<text text-anchor="middle" x="2865" y="-175.8" font-family="Times,serif" font-size="14.00" fill="#000000">SleepChartComponent</text>
</g>
<!-- SleepChartComponent&#45;&gt;DetectionPageModule -->
<g id="edge14" class="edge">
<title>SleepChartComponent&#45;&gt;DetectionPageModule</title>
<path fill="none" stroke="#000000" d="M2819.4117,-198.2228C2819.4117,-198.2228 2819.4117,-219.7269 2819.4117,-219.7269"/>
<polygon fill="#000000" stroke="#000000" points="2815.9117,-219.7269 2819.4117,-229.7269 2822.9117,-219.727 2815.9117,-219.7269"/>
</g>
<!-- ObservationListPageModule -->
<g id="node38" class="node">
<title>ObservationListPageModule</title>
<polygon fill="#8dd3c7" stroke="#000000" points="3532.4622,-266 3529.4622,-270 3508.4622,-270 3505.4622,-266 3355.5378,-266 3355.5378,-230 3532.4622,-230 3532.4622,-266"/>
<text text-anchor="middle" x="3444" y="-243.8" font-family="Times,serif" font-size="14.00" fill="#000000">ObservationListPageModule</text>
</g>
<!-- SleepChartComponent&#45;&gt;ObservationListPageModule -->
<g id="edge30" class="edge">
<title>SleepChartComponent&#45;&gt;ObservationListPageModule</title>
<path fill="none" stroke="#000000" d="M2897.5009,-198.1944C2897.5009,-206.2782 2897.5009,-214 2897.5009,-214 2897.5009,-214 3366.4064,-214 3366.4064,-214 3366.4064,-214 3366.4064,-219.8056 3366.4064,-219.8056"/>
<polygon fill="#000000" stroke="#000000" points="3362.9064,-219.8055 3366.4064,-229.8056 3369.9064,-219.8056 3362.9064,-219.8055"/>
</g>
<!-- DetectionPageComponent  -->
<g id="node19" class="node">
<title>DetectionPageComponent </title>
<polygon fill="#fb8072" stroke="#000000" points="2858.4671,-334 2691.5329,-334 2691.5329,-298 2858.4671,-298 2858.4671,-334"/>
<text text-anchor="middle" x="2775" y="-311.8" font-family="Times,serif" font-size="14.00" fill="#000000">DetectionPageComponent </text>
</g>
<!-- DetectionPageModule&#45;&gt;DetectionPageComponent  -->
<g id="edge16" class="edge">
<title>DetectionPageModule&#45;&gt;DetectionPageComponent </title>
<path fill="none" stroke="#000000" stroke-dasharray="5,2" d="M2798.5306,-266.2228C2798.5306,-266.2228 2798.5306,-287.7269 2798.5306,-287.7269"/>
<polygon fill="#000000" stroke="#000000" points="2795.0307,-287.7269 2798.5306,-297.7269 2802.0307,-287.727 2795.0307,-287.7269"/>
</g>
<!-- DetectionPageModule&#45;&gt;PatientDetailsPageModule -->
<g id="edge34" class="edge">
<title>DetectionPageModule&#45;&gt;PatientDetailsPageModule</title>
<path fill="none" stroke="#000000" d="M2751.4694,-266.1944C2751.4694,-274.2782 2751.4694,-282 2751.4694,-282 2751.4694,-282 1372.5798,-282 1372.5798,-282 1372.5798,-282 1372.5798,-287.8056 1372.5798,-287.8056"/>
<polygon fill="#000000" stroke="#000000" points="1369.0799,-287.8055 1372.5798,-297.8056 1376.0799,-287.8056 1369.0799,-287.8055"/>
</g>
<!-- DeviceAddPage -->
<g id="node20" class="node">
<title>DeviceAddPage</title>
<polygon fill="#ffffb3" stroke="#000000" points="3684.4594,-122 3577.5406,-122 3577.5406,-86 3684.4594,-86 3684.4594,-122"/>
<text text-anchor="middle" x="3631" y="-99.8" font-family="Times,serif" font-size="14.00" fill="#000000">DeviceAddPage</text>
</g>
<!-- DeviceAddPageModule -->
<g id="node21" class="node">
<title>DeviceAddPageModule</title>
<polygon fill="#8dd3c7" stroke="#000000" points="3706.01,-198 3703.01,-202 3682.01,-202 3679.01,-198 3555.99,-198 3555.99,-162 3706.01,-162 3706.01,-198"/>
<text text-anchor="middle" x="3631" y="-175.8" font-family="Times,serif" font-size="14.00" fill="#000000">DeviceAddPageModule</text>
</g>
<!-- DeviceAddPage&#45;&gt;DeviceAddPageModule -->
<g id="edge17" class="edge">
<title>DeviceAddPage&#45;&gt;DeviceAddPageModule</title>
<path fill="none" stroke="#000000" d="M3631,-122.0109C3631,-122.0109 3631,-151.855 3631,-151.855"/>
<polygon fill="#000000" stroke="#000000" points="3627.5001,-151.8549 3631,-161.855 3634.5001,-151.855 3627.5001,-151.8549"/>
</g>
<!-- DeviceDetailsPage -->
<g id="node22" class="node">
<title>DeviceDetailsPage</title>
<polygon fill="#ffffb3" stroke="#000000" points="3874.006,-122 3751.994,-122 3751.994,-86 3874.006,-86 3874.006,-122"/>
<text text-anchor="middle" x="3813" y="-99.8" font-family="Times,serif" font-size="14.00" fill="#000000">DeviceDetailsPage</text>
</g>
<!-- DeviceDetailsPageModule -->
<g id="node23" class="node">
<title>DeviceDetailsPageModule</title>
<polygon fill="#8dd3c7" stroke="#000000" points="3896.0548,-198 3893.0548,-202 3872.0548,-202 3869.0548,-198 3729.9452,-198 3729.9452,-162 3896.0548,-162 3896.0548,-198"/>
<text text-anchor="middle" x="3813" y="-175.8" font-family="Times,serif" font-size="14.00" fill="#000000">DeviceDetailsPageModule</text>
</g>
<!-- DeviceDetailsPage&#45;&gt;DeviceDetailsPageModule -->
<g id="edge18" class="edge">
<title>DeviceDetailsPage&#45;&gt;DeviceDetailsPageModule</title>
<path fill="none" stroke="#000000" d="M3813,-122.0109C3813,-122.0109 3813,-151.855 3813,-151.855"/>
<polygon fill="#000000" stroke="#000000" points="3809.5001,-151.8549 3813,-161.855 3816.5001,-151.855 3809.5001,-151.8549"/>
</g>
<!-- DeviceListPage -->
<g id="node24" class="node">
<title>DeviceListPage</title>
<polygon fill="#ffffb3" stroke="#000000" points="4046.1318,-122 3941.8682,-122 3941.8682,-86 4046.1318,-86 4046.1318,-122"/>
<text text-anchor="middle" x="3994" y="-99.8" font-family="Times,serif" font-size="14.00" fill="#000000">DeviceListPage</text>
</g>
<!-- DeviceListPageModule -->
<g id="node25" class="node">
<title>DeviceListPageModule</title>
<polygon fill="#8dd3c7" stroke="#000000" points="4068.1811,-198 4065.1811,-202 4044.1811,-202 4041.1811,-198 3919.8189,-198 3919.8189,-162 4068.1811,-162 4068.1811,-198"/>
<text text-anchor="middle" x="3994" y="-175.8" font-family="Times,serif" font-size="14.00" fill="#000000">DeviceListPageModule</text>
</g>
<!-- DeviceListPage&#45;&gt;DeviceListPageModule -->
<g id="edge19" class="edge">
<title>DeviceListPage&#45;&gt;DeviceListPageModule</title>
<path fill="none" stroke="#000000" d="M3994,-122.0109C3994,-122.0109 3994,-151.855 3994,-151.855"/>
<polygon fill="#000000" stroke="#000000" points="3990.5001,-151.8549 3994,-161.855 3997.5001,-151.855 3990.5001,-151.8549"/>
</g>
<!-- DeviceListPage  -->
<g id="node26" class="node">
<title>DeviceListPage </title>
<polygon fill="#fb8072" stroke="#000000" points="4048.1313,-266 3939.8687,-266 3939.8687,-230 4048.1313,-230 4048.1313,-266"/>
<text text-anchor="middle" x="3994" y="-243.8" font-family="Times,serif" font-size="14.00" fill="#000000">DeviceListPage </text>
</g>
<!-- DeviceListPageModule&#45;&gt;DeviceListPage  -->
<g id="edge20" class="edge">
<title>DeviceListPageModule&#45;&gt;DeviceListPage </title>
<path fill="none" stroke="#000000" stroke-dasharray="5,2" d="M3994,-198.2228C3994,-198.2228 3994,-219.7269 3994,-219.7269"/>
<polygon fill="#000000" stroke="#000000" points="3990.5001,-219.7269 3994,-229.7269 3997.5001,-219.727 3990.5001,-219.7269"/>
</g>
<!-- MainPage -->
<g id="node27" class="node">
<title>MainPage</title>
<polygon fill="#ffffb3" stroke="#000000" points="4186.262,-122 4113.738,-122 4113.738,-86 4186.262,-86 4186.262,-122"/>
<text text-anchor="middle" x="4150" y="-99.8" font-family="Times,serif" font-size="14.00" fill="#000000">MainPage</text>
</g>
<!-- MainPageModule -->
<g id="node28" class="node">
<title>MainPageModule</title>
<polygon fill="#8dd3c7" stroke="#000000" points="4208.3118,-198 4205.3118,-202 4184.3118,-202 4181.3118,-198 4091.6882,-198 4091.6882,-162 4208.3118,-162 4208.3118,-198"/>
<text text-anchor="middle" x="4150" y="-175.8" font-family="Times,serif" font-size="14.00" fill="#000000">MainPageModule</text>
</g>
<!-- MainPage&#45;&gt;MainPageModule -->
<g id="edge21" class="edge">
<title>MainPage&#45;&gt;MainPageModule</title>
<path fill="none" stroke="#000000" d="M4150,-122.0109C4150,-122.0109 4150,-151.855 4150,-151.855"/>
<polygon fill="#000000" stroke="#000000" points="4146.5001,-151.8549 4150,-161.855 4153.5001,-151.855 4146.5001,-151.8549"/>
</g>
<!-- AppointmentModalComponent -->
<g id="node29" class="node">
<title>AppointmentModalComponent</title>
<polygon fill="#ffffb3" stroke="#000000" points="2138.7659,-198 1947.2341,-198 1947.2341,-162 2138.7659,-162 2138.7659,-198"/>
<text text-anchor="middle" x="2043" y="-175.8" font-family="Times,serif" font-size="14.00" fill="#000000">AppointmentModalComponent</text>
</g>
<!-- MedicalChartModule -->
<g id="node34" class="node">
<title>MedicalChartModule</title>
<polygon fill="#8dd3c7" stroke="#000000" points="1910.0226,-266 1907.0226,-270 1886.0226,-270 1883.0226,-266 1773.9774,-266 1773.9774,-230 1910.0226,-230 1910.0226,-266"/>
<text text-anchor="middle" x="1842" y="-243.8" font-family="Times,serif" font-size="14.00" fill="#000000">MedicalChartModule</text>
</g>
<!-- AppointmentModalComponent&#45;&gt;MedicalChartModule -->
<g id="edge22" class="edge">
<title>AppointmentModalComponent&#45;&gt;MedicalChartModule</title>
<path fill="none" stroke="#000000" d="M2043,-198.0225C2043,-215.3734 2043,-239 2043,-239 2043,-239 1920.0494,-239 1920.0494,-239"/>
<polygon fill="#000000" stroke="#000000" points="1920.0495,-235.5001 1910.0494,-239 1920.0494,-242.5001 1920.0495,-235.5001"/>
</g>
<!-- ConditionModalComponent -->
<g id="node30" class="node">
<title>ConditionModalComponent</title>
<polygon fill="#ffffb3" stroke="#000000" points="1928.8906,-198 1755.1094,-198 1755.1094,-162 1928.8906,-162 1928.8906,-198"/>
<text text-anchor="middle" x="1842" y="-175.8" font-family="Times,serif" font-size="14.00" fill="#000000">ConditionModalComponent</text>
</g>
<!-- ConditionModalComponent&#45;&gt;MedicalChartModule -->
<g id="edge23" class="edge">
<title>ConditionModalComponent&#45;&gt;MedicalChartModule</title>
<path fill="none" stroke="#000000" d="M1842,-198.2228C1842,-198.2228 1842,-219.7269 1842,-219.7269"/>
<polygon fill="#000000" stroke="#000000" points="1838.5001,-219.7269 1842,-229.7269 1845.5001,-219.727 1838.5001,-219.7269"/>
</g>
<!-- MedicalChartComponent -->
<g id="node31" class="node">
<title>MedicalChartComponent</title>
<polygon fill="#ffffb3" stroke="#000000" points="1737.3047,-198 1578.6953,-198 1578.6953,-162 1737.3047,-162 1737.3047,-198"/>
<text text-anchor="middle" x="1658" y="-175.8" font-family="Times,serif" font-size="14.00" fill="#000000">MedicalChartComponent</text>
</g>
<!-- MedicalChartComponent&#45;&gt;MedicalChartModule -->
<g id="edge24" class="edge">
<title>MedicalChartComponent&#45;&gt;MedicalChartModule</title>
<path fill="none" stroke="#000000" d="M1658,-198.0225C1658,-215.3734 1658,-239 1658,-239 1658,-239 1763.7467,-239 1763.7467,-239"/>
<polygon fill="#000000" stroke="#000000" points="1763.7467,-242.5001 1773.7467,-239 1763.7466,-235.5001 1763.7467,-242.5001"/>
</g>
<!-- MedicationModalComponent -->
<g id="node32" class="node">
<title>MedicationModalComponent</title>
<polygon fill="#ffffb3" stroke="#000000" points="2572.6428,-198 2391.3572,-198 2391.3572,-162 2572.6428,-162 2572.6428,-198"/>
<text text-anchor="middle" x="2482" y="-175.8" font-family="Times,serif" font-size="14.00" fill="#000000">MedicationModalComponent</text>
</g>
<!-- MedicationModalComponent&#45;&gt;MedicalChartModule -->
<g id="edge25" class="edge">
<title>MedicationModalComponent&#45;&gt;MedicalChartModule</title>
<path fill="none" stroke="#000000" d="M2482,-198.2479C2482,-221.0179 2482,-257 2482,-257 2482,-257 1920.188,-257 1920.188,-257"/>
<polygon fill="#000000" stroke="#000000" points="1920.188,-253.5001 1910.188,-257 1920.188,-260.5001 1920.188,-253.5001"/>
</g>
<!-- TakedMedicationModalComponent -->
<g id="node33" class="node">
<title>TakedMedicationModalComponent</title>
<polygon fill="#ffffb3" stroke="#000000" points="2373.1245,-198 2156.8755,-198 2156.8755,-162 2373.1245,-162 2373.1245,-198"/>
<text text-anchor="middle" x="2265" y="-175.8" font-family="Times,serif" font-size="14.00" fill="#000000">TakedMedicationModalComponent</text>
</g>
<!-- TakedMedicationModalComponent&#45;&gt;MedicalChartModule -->
<g id="edge26" class="edge">
<title>TakedMedicationModalComponent&#45;&gt;MedicalChartModule</title>
<path fill="none" stroke="#000000" d="M2265,-198.2228C2265,-218.3652 2265,-248 2265,-248 2265,-248 1920.4324,-248 1920.4324,-248"/>
<polygon fill="#000000" stroke="#000000" points="1920.4324,-244.5001 1910.4324,-248 1920.4324,-251.5001 1920.4324,-244.5001"/>
</g>
<!-- MedicalChartComponent  -->
<g id="node36" class="node">
<title>MedicalChartComponent </title>
<polygon fill="#fb8072" stroke="#000000" points="1922.8045,-334 1761.1955,-334 1761.1955,-298 1922.8045,-298 1922.8045,-334"/>
<text text-anchor="middle" x="1842" y="-311.8" font-family="Times,serif" font-size="14.00" fill="#000000">MedicalChartComponent </text>
</g>
<!-- MedicalChartModule&#45;&gt;MedicalChartComponent  -->
<g id="edge28" class="edge">
<title>MedicalChartModule&#45;&gt;MedicalChartComponent </title>
<path fill="none" stroke="#000000" stroke-dasharray="5,2" d="M1842,-266.2228C1842,-266.2228 1842,-287.7269 1842,-287.7269"/>
<polygon fill="#000000" stroke="#000000" points="1838.5001,-287.7269 1842,-297.7269 1845.5001,-287.727 1838.5001,-287.7269"/>
</g>
<!-- MedicalChartModule&#45;&gt;PatientDetailsPageModule -->
<g id="edge35" class="edge">
<title>MedicalChartModule&#45;&gt;PatientDetailsPageModule</title>
<path fill="none" stroke="#000000" d="M1773.7958,-257C1642.5548,-257 1367.7268,-257 1367.7268,-257 1367.7268,-257 1367.7268,-287.9775 1367.7268,-287.9775"/>
<polygon fill="#000000" stroke="#000000" points="1364.2269,-287.9774 1367.7268,-297.9775 1371.2269,-287.9775 1364.2269,-287.9774"/>
</g>
<!-- SpecificDatasModule -->
<g id="node35" class="node">
<title>SpecificDatasModule</title>
<polygon fill="#8dd3c7" stroke="#000000" points="1554.7893,-198 1551.7893,-202 1530.7893,-202 1527.7893,-198 1417.2107,-198 1417.2107,-162 1554.7893,-162 1554.7893,-198"/>
<text text-anchor="middle" x="1486" y="-175.8" font-family="Times,serif" font-size="14.00" fill="#000000">SpecificDatasModule</text>
</g>
<!-- SpecificDatasModule&#45;&gt;MedicalChartModule -->
<g id="edge27" class="edge">
<title>SpecificDatasModule&#45;&gt;MedicalChartModule</title>
<path fill="none" stroke="#000000" d="M1486,-198.2228C1486,-218.3652 1486,-248 1486,-248 1486,-248 1763.7808,-248 1763.7808,-248"/>
<polygon fill="#000000" stroke="#000000" points="1763.7809,-251.5001 1773.7808,-248 1763.7808,-244.5001 1763.7809,-251.5001"/>
</g>
<!-- SpecificDatasComponent  -->
<g id="node56" class="node">
<title>SpecificDatasComponent </title>
<polygon fill="#fb8072" stroke="#000000" points="1382.0722,-122 1219.9278,-122 1219.9278,-86 1382.0722,-86 1382.0722,-122"/>
<text text-anchor="middle" x="1301" y="-99.8" font-family="Times,serif" font-size="14.00" fill="#000000">SpecificDatasComponent </text>
</g>
<!-- SpecificDatasModule&#45;&gt;SpecificDatasComponent  -->
<g id="edge44" class="edge">
<title>SpecificDatasModule&#45;&gt;SpecificDatasComponent </title>
<path fill="none" stroke="#000000" stroke-dasharray="5,2" d="M1417.2427,-180C1395.6969,-180 1377.4328,-180 1377.4328,-180 1377.4328,-180 1377.4328,-132.0109 1377.4328,-132.0109"/>
<polygon fill="#000000" stroke="#000000" points="1380.9329,-132.0109 1377.4328,-122.0109 1373.9329,-132.011 1380.9329,-132.0109"/>
</g>
<!-- ObservationListPage -->
<g id="node37" class="node">
<title>ObservationListPage</title>
<polygon fill="#ffffb3" stroke="#000000" points="3510.913,-198 3377.087,-198 3377.087,-162 3510.913,-162 3510.913,-198"/>
<text text-anchor="middle" x="3444" y="-175.8" font-family="Times,serif" font-size="14.00" fill="#000000">ObservationListPage</text>
</g>
<!-- ObservationListPage&#45;&gt;ObservationListPageModule -->
<g id="edge29" class="edge">
<title>ObservationListPage&#45;&gt;ObservationListPageModule</title>
<path fill="none" stroke="#000000" d="M3444,-198.2228C3444,-198.2228 3444,-219.7269 3444,-219.7269"/>
<polygon fill="#000000" stroke="#000000" points="3440.5001,-219.7269 3444,-229.7269 3447.5001,-219.727 3440.5001,-219.7269"/>
</g>
<!-- PatientAddPage -->
<g id="node39" class="node">
<title>PatientAddPage</title>
<polygon fill="#ffffb3" stroke="#000000" points="4360.2022,-122 4253.7978,-122 4253.7978,-86 4360.2022,-86 4360.2022,-122"/>
<text text-anchor="middle" x="4307" y="-99.8" font-family="Times,serif" font-size="14.00" fill="#000000">PatientAddPage</text>
</g>
<!-- PatientAddPageModule -->
<g id="node40" class="node">
<title>PatientAddPageModule</title>
<polygon fill="#8dd3c7" stroke="#000000" points="4381.752,-198 4378.752,-202 4357.752,-202 4354.752,-198 4232.248,-198 4232.248,-162 4381.752,-162 4381.752,-198"/>
<text text-anchor="middle" x="4307" y="-175.8" font-family="Times,serif" font-size="14.00" fill="#000000">PatientAddPageModule</text>
</g>
<!-- PatientAddPage&#45;&gt;PatientAddPageModule -->
<g id="edge31" class="edge">
<title>PatientAddPage&#45;&gt;PatientAddPageModule</title>
<path fill="none" stroke="#000000" d="M4307,-122.0109C4307,-122.0109 4307,-151.855 4307,-151.855"/>
<polygon fill="#000000" stroke="#000000" points="4303.5001,-151.8549 4307,-161.855 4310.5001,-151.855 4303.5001,-151.8549"/>
</g>
<!-- PatientDetailsPage -->
<g id="node41" class="node">
<title>PatientDetailsPage</title>
<polygon fill="#ffffb3" stroke="#000000" points="1362.7479,-266 1241.2521,-266 1241.2521,-230 1362.7479,-230 1362.7479,-266"/>
<text text-anchor="middle" x="1302" y="-243.8" font-family="Times,serif" font-size="14.00" fill="#000000">PatientDetailsPage</text>
</g>
<!-- PatientDetailsPage&#45;&gt;PatientDetailsPageModule -->
<g id="edge32" class="edge">
<title>PatientDetailsPage&#45;&gt;PatientDetailsPageModule</title>
<path fill="none" stroke="#000000" d="M1302,-266.2228C1302,-266.2228 1302,-287.7269 1302,-287.7269"/>
<polygon fill="#000000" stroke="#000000" points="1298.5001,-287.7269 1302,-297.7269 1305.5001,-287.727 1298.5001,-287.7269"/>
</g>
<!-- PatientListPage -->
<g id="node43" class="node">
<title>PatientListPage</title>
<polygon fill="#ffffb3" stroke="#000000" points="4531.8739,-122 4428.1261,-122 4428.1261,-86 4531.8739,-86 4531.8739,-122"/>
<text text-anchor="middle" x="4480" y="-99.8" font-family="Times,serif" font-size="14.00" fill="#000000">PatientListPage</text>
</g>
<!-- PatientListPageModule -->
<g id="node44" class="node">
<title>PatientListPageModule</title>
<polygon fill="#8dd3c7" stroke="#000000" points="4553.9242,-198 4550.9242,-202 4529.9242,-202 4526.9242,-198 4406.0758,-198 4406.0758,-162 4553.9242,-162 4553.9242,-198"/>
<text text-anchor="middle" x="4480" y="-175.8" font-family="Times,serif" font-size="14.00" fill="#000000">PatientListPageModule</text>
</g>
<!-- PatientListPage&#45;&gt;PatientListPageModule -->
<g id="edge36" class="edge">
<title>PatientListPage&#45;&gt;PatientListPageModule</title>
<path fill="none" stroke="#000000" d="M4480,-122.0109C4480,-122.0109 4480,-151.855 4480,-151.855"/>
<polygon fill="#000000" stroke="#000000" points="4476.5001,-151.8549 4480,-161.855 4483.5001,-151.855 4476.5001,-151.8549"/>
</g>
<!-- MinuteToHourPipe -->
<g id="node45" class="node">
<title>MinuteToHourPipe</title>
<polygon fill="#ffffb3" stroke="#000000" points="4713.6485,-122 4588.3515,-122 4588.3515,-86 4713.6485,-86 4713.6485,-122"/>
<text text-anchor="middle" x="4651" y="-99.8" font-family="Times,serif" font-size="14.00" fill="#000000">MinuteToHourPipe</text>
</g>
<!-- PipesModule -->
<g id="node46" class="node">
<title>PipesModule</title>
<polygon fill="#8dd3c7" stroke="#000000" points="4695.8823,-198 4692.8823,-202 4671.8823,-202 4668.8823,-198 4606.1177,-198 4606.1177,-162 4695.8823,-162 4695.8823,-198"/>
<text text-anchor="middle" x="4651" y="-175.8" font-family="Times,serif" font-size="14.00" fill="#000000">PipesModule</text>
</g>
<!-- MinuteToHourPipe&#45;&gt;PipesModule -->
<g id="edge37" class="edge">
<title>MinuteToHourPipe&#45;&gt;PipesModule</title>
<path fill="none" stroke="#000000" d="M4651,-122.0109C4651,-122.0109 4651,-151.855 4651,-151.855"/>
<polygon fill="#000000" stroke="#000000" points="4647.5001,-151.8549 4651,-161.855 4654.5001,-151.855 4647.5001,-151.8549"/>
</g>
<!-- MinuteToHourPipe  -->
<g id="node47" class="node">
<title>MinuteToHourPipe </title>
<polygon fill="#fb8072" stroke="#000000" points="4715.6481,-266 4586.3519,-266 4586.3519,-230 4715.6481,-230 4715.6481,-266"/>
<text text-anchor="middle" x="4651" y="-243.8" font-family="Times,serif" font-size="14.00" fill="#000000">MinuteToHourPipe </text>
</g>
<!-- PipesModule&#45;&gt;MinuteToHourPipe  -->
<g id="edge38" class="edge">
<title>PipesModule&#45;&gt;MinuteToHourPipe </title>
<path fill="none" stroke="#000000" stroke-dasharray="5,2" d="M4651,-198.2228C4651,-198.2228 4651,-219.7269 4651,-219.7269"/>
<polygon fill="#000000" stroke="#000000" points="4647.5001,-219.7269 4651,-229.7269 4654.5001,-219.727 4647.5001,-219.7269"/>
</g>
<!-- ProfilePage -->
<g id="node48" class="node">
<title>ProfilePage</title>
<polygon fill="#ffffb3" stroke="#000000" points="4850.812,-122 4769.188,-122 4769.188,-86 4850.812,-86 4850.812,-122"/>
<text text-anchor="middle" x="4810" y="-99.8" font-family="Times,serif" font-size="14.00" fill="#000000">ProfilePage</text>
</g>
<!-- ProfilePageModule -->
<g id="node49" class="node">
<title>ProfilePageModule</title>
<polygon fill="#8dd3c7" stroke="#000000" points="4872.3613,-198 4869.3613,-202 4848.3613,-202 4845.3613,-198 4747.6387,-198 4747.6387,-162 4872.3613,-162 4872.3613,-198"/>
<text text-anchor="middle" x="4810" y="-175.8" font-family="Times,serif" font-size="14.00" fill="#000000">ProfilePageModule</text>
</g>
<!-- ProfilePage&#45;&gt;ProfilePageModule -->
<g id="edge39" class="edge">
<title>ProfilePage&#45;&gt;ProfilePageModule</title>
<path fill="none" stroke="#000000" d="M4810,-122.0109C4810,-122.0109 4810,-151.855 4810,-151.855"/>
<polygon fill="#000000" stroke="#000000" points="4806.5001,-151.8549 4810,-161.855 4813.5001,-151.855 4806.5001,-151.8549"/>
</g>
<!-- SettingsPage -->
<g id="node50" class="node">
<title>SettingsPage</title>
<polygon fill="#ffffb3" stroke="#000000" points="5006.326,-122 4917.674,-122 4917.674,-86 5006.326,-86 5006.326,-122"/>
<text text-anchor="middle" x="4962" y="-99.8" font-family="Times,serif" font-size="14.00" fill="#000000">SettingsPage</text>
</g>
<!-- SettingsPageModule -->
<g id="node51" class="node">
<title>SettingsPageModule</title>
<polygon fill="#8dd3c7" stroke="#000000" points="5027.8753,-198 5024.8753,-202 5003.8753,-202 5000.8753,-198 4896.1247,-198 4896.1247,-162 5027.8753,-162 5027.8753,-198"/>
<text text-anchor="middle" x="4962" y="-175.8" font-family="Times,serif" font-size="14.00" fill="#000000">SettingsPageModule</text>
</g>
<!-- SettingsPage&#45;&gt;SettingsPageModule -->
<g id="edge40" class="edge">
<title>SettingsPage&#45;&gt;SettingsPageModule</title>
<path fill="none" stroke="#000000" d="M4962,-122.0109C4962,-122.0109 4962,-151.855 4962,-151.855"/>
<polygon fill="#000000" stroke="#000000" points="4958.5001,-151.8549 4962,-161.855 4965.5001,-151.855 4958.5001,-151.8549"/>
</g>
<!-- SleepPage -->
<g id="node52" class="node">
<title>SleepPage</title>
<polygon fill="#ffffb3" stroke="#000000" points="5148.3149,-122 5073.6851,-122 5073.6851,-86 5148.3149,-86 5148.3149,-122"/>
<text text-anchor="middle" x="5111" y="-99.8" font-family="Times,serif" font-size="14.00" fill="#000000">SleepPage</text>
</g>
<!-- SleepPageModule -->
<g id="node53" class="node">
<title>SleepPageModule</title>
<polygon fill="#8dd3c7" stroke="#000000" points="5169.8641,-198 5166.8641,-202 5145.8641,-202 5142.8641,-198 5052.1359,-198 5052.1359,-162 5169.8641,-162 5169.8641,-198"/>
<text text-anchor="middle" x="5111" y="-175.8" font-family="Times,serif" font-size="14.00" fill="#000000">SleepPageModule</text>
</g>
<!-- SleepPage&#45;&gt;SleepPageModule -->
<g id="edge41" class="edge">
<title>SleepPage&#45;&gt;SleepPageModule</title>
<path fill="none" stroke="#000000" d="M5111,-122.0109C5111,-122.0109 5111,-151.855 5111,-151.855"/>
<polygon fill="#000000" stroke="#000000" points="5107.5001,-151.8549 5111,-161.855 5114.5001,-151.855 5107.5001,-151.8549"/>
</g>
<!-- GinaControllerDirective -->
<g id="node54" class="node">
<title>GinaControllerDirective</title>
<polygon fill="#ffffb3" stroke="#000000" points="1736.3389,-122 1583.6611,-122 1583.6611,-86 1736.3389,-86 1736.3389,-122"/>
<text text-anchor="middle" x="1660" y="-99.8" font-family="Times,serif" font-size="14.00" fill="#000000">GinaControllerDirective</text>
</g>
<!-- GinaControllerDirective&#45;&gt;SpecificDatasModule -->
<g id="edge42" class="edge">
<title>GinaControllerDirective&#45;&gt;SpecificDatasModule</title>
<path fill="none" stroke="#000000" d="M1583.3128,-104C1576.545,-104 1572.1918,-104 1572.1918,-104 1572.1918,-104 1572.1918,-180 1572.1918,-180 1572.1918,-180 1564.7496,-180 1564.7496,-180"/>
<polygon fill="#000000" stroke="#000000" points="1564.7496,-176.5001 1554.7496,-180 1564.7496,-183.5001 1564.7496,-176.5001"/>
</g>
<!-- SpecificDatasComponent -->
<g id="node55" class="node">
<title>SpecificDatasComponent</title>
<polygon fill="#ffffb3" stroke="#000000" points="1565.5716,-122 1406.4284,-122 1406.4284,-86 1565.5716,-86 1565.5716,-122"/>
<text text-anchor="middle" x="1486" y="-99.8" font-family="Times,serif" font-size="14.00" fill="#000000">SpecificDatasComponent</text>
</g>
<!-- SpecificDatasComponent&#45;&gt;SpecificDatasModule -->
<g id="edge43" class="edge">
<title>SpecificDatasComponent&#45;&gt;SpecificDatasModule</title>
<path fill="none" stroke="#000000" d="M1486,-122.0109C1486,-122.0109 1486,-151.855 1486,-151.855"/>
<polygon fill="#000000" stroke="#000000" points="1482.5001,-151.8549 1486,-161.855 1489.5001,-151.855 1482.5001,-151.8549"/>
</g>
</g>
</svg>
