<?xml version="1.0" encoding="UTF-8" standalone="no"?>
<!DOCTYPE svg PUBLIC "-//W3C//DTD SVG 1.1//EN"
 "http://www.w3.org/Graphics/SVG/1.1/DTD/svg11.dtd">
<!-- Generated by graphviz version 2.40.1 (20161225.0304)
 -->
<!-- Title: dependencies Pages: 1 -->
<svg width="516pt" height="284pt"
 viewBox="0.00 0.00 516.00 284.00" xmlns="http://www.w3.org/2000/svg" xmlns:xlink="http://www.w3.org/1999/xlink">
<g id="graph0" class="graph" transform="scale(1 1) rotate(0) translate(4 280)">
<title>dependencies</title>
<polygon fill="#ffffff" stroke="transparent" points="-4,4 -4,-280 512,-280 512,4 -4,4"/>
<text text-anchor="start" x="233.0091" y="-42.4" font-family="sans-serif" font-weight="bold" font-size="14.00" fill="#000000">Legend</text>
<polygon fill="#ffffb3" stroke="transparent" points="20,-10 20,-30 40,-30 40,-10 20,-10"/>
<text text-anchor="start" x="43.629" y="-15.4" font-family="sans-serif" font-size="14.00" fill="#000000"> &#160;Declarations</text>
<polygon fill="#8dd3c7" stroke="transparent" points="133,-10 133,-30 153,-30 153,-10 133,-10"/>
<text text-anchor="start" x="156.7251" y="-15.4" font-family="sans-serif" font-size="14.00" fill="#000000"> &#160;Module</text>
<polygon fill="#80b1d3" stroke="transparent" points="219,-10 219,-30 239,-30 239,-10 219,-10"/>
<text text-anchor="start" x="242.7812" y="-15.4" font-family="sans-serif" font-size="14.00" fill="#000000"> &#160;Bootstrap</text>
<polygon fill="#fdb462" stroke="transparent" points="316,-10 316,-30 336,-30 336,-10 316,-10"/>
<text text-anchor="start" x="339.6732" y="-15.4" font-family="sans-serif" font-size="14.00" fill="#000000"> &#160;Providers</text>
<polygon fill="#fb8072" stroke="transparent" points="412,-10 412,-30 432,-30 432,-10 412,-10"/>
<text text-anchor="start" x="435.7258" y="-15.4" font-family="sans-serif" font-size="14.00" fill="#000000"> &#160;Exports</text>
<g id="clust1" class="cluster">
<title>cluster_DetectionPageModule</title>
<polygon fill="none" stroke="#000000" stroke-dasharray="1,5" points="8,-70 8,-268 500,-268 500,-70 8,-70"/>
</g>
<g id="clust2" class="cluster">
<title>cluster_DetectionPageModule_declarations</title>
<polygon fill="none" stroke="#000000" points="152,-78 152,-130 492,-130 492,-78 152,-78"/>
</g>
<g id="clust5" class="cluster">
<title>cluster_DetectionPageModule_imports</title>
<polygon fill="none" stroke="#000000" points="16,-78 16,-130 144,-130 144,-78 16,-78"/>
</g>
<g id="clust6" class="cluster">
<title>cluster_DetectionPageModule_exports</title>
<polygon fill="none" stroke="#000000" points="141,-208 141,-260 323,-260 323,-208 141,-208"/>
</g>
<!-- DetectionPageComponent -->
<g id="node1" class="node">
<title>DetectionPageComponent</title>
<polygon fill="#ffffb3" stroke="#000000" points="484.4664,-122 321.5336,-122 321.5336,-86 484.4664,-86 484.4664,-122"/>
<text text-anchor="middle" x="403" y="-99.8" font-family="Times,serif" font-size="14.00" fill="#000000">DetectionPageComponent</text>
</g>
<!-- DetectionPageModule -->
<g id="node3" class="node">
<title>DetectionPageModule</title>
<polygon fill="#8dd3c7" stroke="#000000" points="302.6839,-187 299.6839,-191 278.6839,-191 275.6839,-187 161.3161,-187 161.3161,-151 302.6839,-151 302.6839,-187"/>
<text text-anchor="middle" x="232" y="-164.8" font-family="Times,serif" font-size="14.00" fill="#000000">DetectionPageModule</text>
</g>
<!-- DetectionPageComponent&#45;&gt;DetectionPageModule -->
<g id="edge1" class="edge">
<title>DetectionPageComponent&#45;&gt;DetectionPageModule</title>
<path fill="none" stroke="#000000" d="M403,-122.1061C403,-141.3391 403,-169 403,-169 403,-169 313.0338,-169 313.0338,-169"/>
<polygon fill="#000000" stroke="#000000" points="313.0339,-165.5001 303.0338,-169 313.0338,-172.5001 313.0339,-165.5001"/>
</g>
<!-- SleepChartComponent -->
<g id="node2" class="node">
<title>SleepChartComponent</title>
<polygon fill="#ffffb3" stroke="#000000" points="303.5379,-122 160.4621,-122 160.4621,-86 303.5379,-86 303.5379,-122"/>
<text text-anchor="middle" x="232" y="-99.8" font-family="Times,serif" font-size="14.00" fill="#000000">SleepChartComponent</text>
</g>
<!-- SleepChartComponent&#45;&gt;DetectionPageModule -->
<g id="edge2" class="edge">
<title>SleepChartComponent&#45;&gt;DetectionPageModule</title>
<path fill="none" stroke="#000000" d="M232,-122.1061C232,-122.1061 232,-140.991 232,-140.991"/>
<polygon fill="#000000" stroke="#000000" points="228.5001,-140.9909 232,-150.991 235.5001,-140.991 228.5001,-140.9909"/>
</g>
<!-- DetectionPageComponent  -->
<g id="node5" class="node">
<title>DetectionPageComponent </title>
<polygon fill="#fb8072" stroke="#000000" points="315.4671,-252 148.5329,-252 148.5329,-216 315.4671,-216 315.4671,-252"/>
<text text-anchor="middle" x="232" y="-229.8" font-family="Times,serif" font-size="14.00" fill="#000000">DetectionPageComponent </text>
</g>
<!-- DetectionPageModule&#45;&gt;DetectionPageComponent  -->
<g id="edge4" class="edge">
<title>DetectionPageModule&#45;&gt;DetectionPageComponent </title>
<path fill="none" stroke="#000000" stroke-dasharray="5,2" d="M232,-187.1061C232,-187.1061 232,-205.991 232,-205.991"/>
<polygon fill="#000000" stroke="#000000" points="228.5001,-205.9909 232,-215.991 235.5001,-205.991 228.5001,-205.9909"/>
</g>
<!-- DecourseModule -->
<g id="node4" class="node">
<title>DecourseModule</title>
<polygon fill="#8dd3c7" stroke="#000000" points="136.4061,-122 133.4061,-126 112.4061,-126 109.4061,-122 23.5939,-122 23.5939,-86 136.4061,-86 136.4061,-122"/>
<text text-anchor="middle" x="80" y="-99.8" font-family="Times,serif" font-size="14.00" fill="#000000">DecourseModule</text>
</g>
<!-- DecourseModule&#45;&gt;DetectionPageModule -->
<g id="edge3" class="edge">
<title>DecourseModule&#45;&gt;DetectionPageModule</title>
<path fill="none" stroke="#000000" d="M80,-122.1061C80,-141.3391 80,-169 80,-169 80,-169 151.3398,-169 151.3398,-169"/>
<polygon fill="#000000" stroke="#000000" points="151.3399,-172.5001 161.3398,-169 151.3398,-165.5001 151.3399,-172.5001"/>
</g>
</g>
</svg>
