<?xml version="1.0" encoding="UTF-8" standalone="no"?>
<!DOCTYPE svg PUBLIC "-//W3C//DTD SVG 1.1//EN"
 "http://www.w3.org/Graphics/SVG/1.1/DTD/svg11.dtd">
<!-- Generated by graphviz version 2.40.1 (20161225.0304)
 -->
<!-- Title: dependencies Pages: 1 -->
<svg width="602pt" height="211pt"
 viewBox="0.00 0.00 602.00 211.00" xmlns="http://www.w3.org/2000/svg" xmlns:xlink="http://www.w3.org/1999/xlink">
<g id="graph0" class="graph" transform="scale(1 1) rotate(0) translate(4 207)">
<title>dependencies</title>
<polygon fill="#ffffff" stroke="transparent" points="-4,4 -4,-207 598,-207 598,4 -4,4"/>
<text text-anchor="start" x="276.0091" y="-42.4" font-family="sans-serif" font-weight="bold" font-size="14.00" fill="#000000">Legend</text>
<polygon fill="#ffffb3" stroke="transparent" points="63,-10 63,-30 83,-30 83,-10 63,-10"/>
<text text-anchor="start" x="86.629" y="-15.4" font-family="sans-serif" font-size="14.00" fill="#000000"> &#160;Declarations</text>
<polygon fill="#8dd3c7" stroke="transparent" points="176,-10 176,-30 196,-30 196,-10 176,-10"/>
<text text-anchor="start" x="199.7251" y="-15.4" font-family="sans-serif" font-size="14.00" fill="#000000"> &#160;Module</text>
<polygon fill="#80b1d3" stroke="transparent" points="262,-10 262,-30 282,-30 282,-10 262,-10"/>
<text text-anchor="start" x="285.7812" y="-15.4" font-family="sans-serif" font-size="14.00" fill="#000000"> &#160;Bootstrap</text>
<polygon fill="#fdb462" stroke="transparent" points="359,-10 359,-30 379,-30 379,-10 359,-10"/>
<text text-anchor="start" x="382.6732" y="-15.4" font-family="sans-serif" font-size="14.00" fill="#000000"> &#160;Providers</text>
<polygon fill="#fb8072" stroke="transparent" points="455,-10 455,-30 475,-30 475,-10 455,-10"/>
<text text-anchor="start" x="478.7258" y="-15.4" font-family="sans-serif" font-size="14.00" fill="#000000"> &#160;Exports</text>
<g id="clust1" class="cluster">
<title>cluster_PatientDetailsPageModule</title>
<polygon fill="none" stroke="#000000" stroke-dasharray="1,5" points="8,-70 8,-195 586,-195 586,-70 8,-70"/>
</g>
<g id="clust2" class="cluster">
<title>cluster_PatientDetailsPageModule_declarations</title>
<polygon fill="none" stroke="#000000" points="440,-78 440,-130 578,-130 578,-78 440,-78"/>
</g>
<g id="clust4" class="cluster">
<title>cluster_PatientDetailsPageModule_imports</title>
<polygon fill="none" stroke="#000000" points="16,-78 16,-130 432,-130 432,-78 16,-78"/>
</g>
<!-- PatientDetailsPage -->
<g id="node1" class="node">
<title>PatientDetailsPage</title>
<polygon fill="#ffffb3" stroke="#000000" points="569.7479,-122 448.2521,-122 448.2521,-86 569.7479,-86 569.7479,-122"/>
<text text-anchor="middle" x="509" y="-99.8" font-family="Times,serif" font-size="14.00" fill="#000000">PatientDetailsPage</text>
</g>
<!-- PatientDetailsPageModule -->
<g id="node2" class="node">
<title>PatientDetailsPageModule</title>
<polygon fill="#8dd3c7" stroke="#000000" points="397.7977,-187 394.7977,-191 373.7977,-191 370.7977,-187 232.2023,-187 232.2023,-151 397.7977,-151 397.7977,-187"/>
<text text-anchor="middle" x="315" y="-164.8" font-family="Times,serif" font-size="14.00" fill="#000000">PatientDetailsPageModule</text>
</g>
<!-- PatientDetailsPage&#45;&gt;PatientDetailsPageModule -->
<g id="edge1" class="edge">
<title>PatientDetailsPage&#45;&gt;PatientDetailsPageModule</title>
<path fill="none" stroke="#000000" d="M509,-122.1061C509,-141.3391 509,-169 509,-169 509,-169 407.8362,-169 407.8362,-169"/>
<polygon fill="#000000" stroke="#000000" points="407.8362,-165.5001 397.8362,-169 407.8361,-172.5001 407.8362,-165.5001"/>
</g>
<!-- CareModule -->
<g id="node3" class="node">
<title>CareModule</title>
<polygon fill="#8dd3c7" stroke="#000000" points="423.9762,-122 420.9762,-126 399.9762,-126 396.9762,-122 338.0238,-122 338.0238,-86 423.9762,-86 423.9762,-122"/>
<text text-anchor="middle" x="381" y="-99.8" font-family="Times,serif" font-size="14.00" fill="#000000">CareModule</text>
</g>
<!-- CareModule&#45;&gt;PatientDetailsPageModule -->
<g id="edge2" class="edge">
<title>CareModule&#45;&gt;PatientDetailsPageModule</title>
<path fill="none" stroke="#000000" d="M367.8303,-122.1061C367.8303,-122.1061 367.8303,-140.991 367.8303,-140.991"/>
<polygon fill="#000000" stroke="#000000" points="364.3304,-140.9909 367.8303,-150.991 371.3304,-140.991 364.3304,-140.9909"/>
</g>
<!-- DetectionPageModule -->
<g id="node4" class="node">
<title>DetectionPageModule</title>
<polygon fill="#8dd3c7" stroke="#000000" points="319.6839,-122 316.6839,-126 295.6839,-126 292.6839,-122 178.3161,-122 178.3161,-86 319.6839,-86 319.6839,-122"/>
<text text-anchor="middle" x="249" y="-99.8" font-family="Times,serif" font-size="14.00" fill="#000000">DetectionPageModule</text>
</g>
<!-- DetectionPageModule&#45;&gt;PatientDetailsPageModule -->
<g id="edge3" class="edge">
<title>DetectionPageModule&#45;&gt;PatientDetailsPageModule</title>
<path fill="none" stroke="#000000" d="M275.9716,-122.1061C275.9716,-122.1061 275.9716,-140.991 275.9716,-140.991"/>
<polygon fill="#000000" stroke="#000000" points="272.4717,-140.9909 275.9716,-150.991 279.4717,-140.991 272.4717,-140.9909"/>
</g>
<!-- MedicalChartModule -->
<g id="node5" class="node">
<title>MedicalChartModule</title>
<polygon fill="#8dd3c7" stroke="#000000" points="160.0226,-122 157.0226,-126 136.0226,-126 133.0226,-122 23.9774,-122 23.9774,-86 160.0226,-86 160.0226,-122"/>
<text text-anchor="middle" x="92" y="-99.8" font-family="Times,serif" font-size="14.00" fill="#000000">MedicalChartModule</text>
</g>
<!-- MedicalChartModule&#45;&gt;PatientDetailsPageModule -->
<g id="edge4" class="edge">
<title>MedicalChartModule&#45;&gt;PatientDetailsPageModule</title>
<path fill="none" stroke="#000000" d="M92,-122.1061C92,-141.3391 92,-169 92,-169 92,-169 222.2799,-169 222.2799,-169"/>
<polygon fill="#000000" stroke="#000000" points="222.28,-172.5001 232.2799,-169 222.2799,-165.5001 222.28,-172.5001"/>
</g>
</g>
</svg>
