<?xml version="1.0" encoding="UTF-8" standalone="no"?>
<!DOCTYPE svg PUBLIC "-//W3C//DTD SVG 1.1//EN"
 "http://www.w3.org/Graphics/SVG/1.1/DTD/svg11.dtd">
<!-- Generated by graphviz version 2.40.1 (20161225.0304)
 -->
<!-- Title: dependencies Pages: 1 -->
<svg width="504pt" height="211pt"
 viewBox="0.00 0.00 504.00 211.00" xmlns="http://www.w3.org/2000/svg" xmlns:xlink="http://www.w3.org/1999/xlink">
<g id="graph0" class="graph" transform="scale(1 1) rotate(0) translate(4 207)">
<title>dependencies</title>
<polygon fill="#ffffff" stroke="transparent" points="-4,4 -4,-207 500,-207 500,4 -4,4"/>
<text text-anchor="start" x="227.0091" y="-42.4" font-family="sans-serif" font-weight="bold" font-size="14.00" fill="#000000">Legend</text>
<polygon fill="#ffffb3" stroke="transparent" points="14,-10 14,-30 34,-30 34,-10 14,-10"/>
<text text-anchor="start" x="37.629" y="-15.4" font-family="sans-serif" font-size="14.00" fill="#000000"> &#160;Declarations</text>
<polygon fill="#8dd3c7" stroke="transparent" points="127,-10 127,-30 147,-30 147,-10 127,-10"/>
<text text-anchor="start" x="150.7251" y="-15.4" font-family="sans-serif" font-size="14.00" fill="#000000"> &#160;Module</text>
<polygon fill="#80b1d3" stroke="transparent" points="213,-10 213,-30 233,-30 233,-10 213,-10"/>
<text text-anchor="start" x="236.7812" y="-15.4" font-family="sans-serif" font-size="14.00" fill="#000000"> &#160;Bootstrap</text>
<polygon fill="#fdb462" stroke="transparent" points="310,-10 310,-30 330,-30 330,-10 310,-10"/>
<text text-anchor="start" x="333.6732" y="-15.4" font-family="sans-serif" font-size="14.00" fill="#000000"> &#160;Providers</text>
<polygon fill="#fb8072" stroke="transparent" points="406,-10 406,-30 426,-30 426,-10 406,-10"/>
<text text-anchor="start" x="429.7258" y="-15.4" font-family="sans-serif" font-size="14.00" fill="#000000"> &#160;Exports</text>
<g id="clust1" class="cluster">
<title>cluster_ObservationListPageModule</title>
<polygon fill="none" stroke="#000000" stroke-dasharray="1,5" points="84.5,-70 84.5,-195 411.5,-195 411.5,-70 84.5,-70"/>
</g>
<g id="clust2" class="cluster">
<title>cluster_ObservationListPageModule_declarations</title>
<polygon fill="none" stroke="#000000" points="92.5,-78 92.5,-130 403.5,-130 403.5,-78 92.5,-78"/>
</g>
<!-- ObservationListPage -->
<g id="node1" class="node">
<title>ObservationListPage</title>
<polygon fill="#ffffb3" stroke="#000000" points="395.413,-122 261.587,-122 261.587,-86 395.413,-86 395.413,-122"/>
<text text-anchor="middle" x="328.5" y="-99.8" font-family="Times,serif" font-size="14.00" fill="#000000">ObservationListPage</text>
</g>
<!-- ObservationListPageModule -->
<g id="node3" class="node">
<title>ObservationListPageModule</title>
<polygon fill="#8dd3c7" stroke="#000000" points="335.9622,-187 332.9622,-191 311.9622,-191 308.9622,-187 159.0378,-187 159.0378,-151 335.9622,-151 335.9622,-187"/>
<text text-anchor="middle" x="247.5" y="-164.8" font-family="Times,serif" font-size="14.00" fill="#000000">ObservationListPageModule</text>
</g>
<!-- ObservationListPage&#45;&gt;ObservationListPageModule -->
<g id="edge1" class="edge">
<title>ObservationListPage&#45;&gt;ObservationListPageModule</title>
<path fill="none" stroke="#000000" d="M298.8875,-122.1061C298.8875,-122.1061 298.8875,-140.991 298.8875,-140.991"/>
<polygon fill="#000000" stroke="#000000" points="295.3875,-140.9909 298.8875,-150.991 302.3875,-140.991 295.3875,-140.9909"/>
</g>
<!-- SleepChartComponent -->
<g id="node2" class="node">
<title>SleepChartComponent</title>
<polygon fill="#ffffb3" stroke="#000000" points="244.0379,-122 100.9621,-122 100.9621,-86 244.0379,-86 244.0379,-122"/>
<text text-anchor="middle" x="172.5" y="-99.8" font-family="Times,serif" font-size="14.00" fill="#000000">SleepChartComponent</text>
</g>
<!-- SleepChartComponent&#45;&gt;ObservationListPageModule -->
<g id="edge2" class="edge">
<title>SleepChartComponent&#45;&gt;ObservationListPageModule</title>
<path fill="none" stroke="#000000" d="M201.6438,-122.1061C201.6438,-122.1061 201.6438,-140.991 201.6438,-140.991"/>
<polygon fill="#000000" stroke="#000000" points="198.1438,-140.9909 201.6438,-150.991 205.1438,-140.991 198.1438,-140.9909"/>
</g>
</g>
</svg>
