<?xml version="1.0" encoding="UTF-8" standalone="no"?>
<!DOCTYPE svg PUBLIC "-//W3C//DTD SVG 1.1//EN"
 "http://www.w3.org/Graphics/SVG/1.1/DTD/svg11.dtd">
<!-- Generated by graphviz version 2.40.1 (20161225.0304)
 -->
<!-- Title: dependencies Pages: 1 -->
<svg width="504pt" height="284pt"
 viewBox="0.00 0.00 504.00 284.00" xmlns="http://www.w3.org/2000/svg" xmlns:xlink="http://www.w3.org/1999/xlink">
<g id="graph0" class="graph" transform="scale(1 1) rotate(0) translate(4 280)">
<title>dependencies</title>
<polygon fill="#ffffff" stroke="transparent" points="-4,4 -4,-280 500,-280 500,4 -4,4"/>
<text text-anchor="start" x="227.0091" y="-42.4" font-family="sans-serif" font-weight="bold" font-size="14.00" fill="#000000">Legend</text>
<polygon fill="#ffffb3" stroke="transparent" points="14,-10 14,-30 34,-30 34,-10 14,-10"/>
<text text-anchor="start" x="37.629" y="-15.4" font-family="sans-serif" font-size="14.00" fill="#000000"> &#160;Declarations</text>
<polygon fill="#8dd3c7" stroke="transparent" points="127,-10 127,-30 147,-30 147,-10 127,-10"/>
<text text-anchor="start" x="150.7251" y="-15.4" font-family="sans-serif" font-size="14.00" fill="#000000"> &#160;Module</text>
<polygon fill="#80b1d3" stroke="transparent" points="213,-10 213,-30 233,-30 233,-10 213,-10"/>
<text text-anchor="start" x="236.7812" y="-15.4" font-family="sans-serif" font-size="14.00" fill="#000000"> &#160;Bootstrap</text>
<polygon fill="#fdb462" stroke="transparent" points="310,-10 310,-30 330,-30 330,-10 310,-10"/>
<text text-anchor="start" x="333.6732" y="-15.4" font-family="sans-serif" font-size="14.00" fill="#000000"> &#160;Providers</text>
<polygon fill="#fb8072" stroke="transparent" points="406,-10 406,-30 426,-30 426,-10 406,-10"/>
<text text-anchor="start" x="429.7258" y="-15.4" font-family="sans-serif" font-size="14.00" fill="#000000"> &#160;Exports</text>
<g id="clust1" class="cluster">
<title>cluster_SpecificDatasModule</title>
<polygon fill="none" stroke="#000000" stroke-dasharray="1,5" points="67,-70 67,-268 429,-268 429,-70 67,-70"/>
</g>
<g id="clust2" class="cluster">
<title>cluster_SpecificDatasModule_declarations</title>
<polygon fill="none" stroke="#000000" points="75,-78 75,-130 421,-130 421,-78 75,-78"/>
</g>
<g id="clust6" class="cluster">
<title>cluster_SpecificDatasModule_exports</title>
<polygon fill="none" stroke="#000000" points="159,-208 159,-260 337,-260 337,-208 159,-208"/>
</g>
<!-- GinaControllerDirective -->
<g id="node1" class="node">
<title>GinaControllerDirective</title>
<polygon fill="#ffffb3" stroke="#000000" points="413.3389,-122 260.6611,-122 260.6611,-86 413.3389,-86 413.3389,-122"/>
<text text-anchor="middle" x="337" y="-99.8" font-family="Times,serif" font-size="14.00" fill="#000000">GinaControllerDirective</text>
</g>
<!-- SpecificDatasModule -->
<g id="node3" class="node">
<title>SpecificDatasModule</title>
<polygon fill="#8dd3c7" stroke="#000000" points="316.7893,-187 313.7893,-191 292.7893,-191 289.7893,-187 179.2107,-187 179.2107,-151 316.7893,-151 316.7893,-187"/>
<text text-anchor="middle" x="248" y="-164.8" font-family="Times,serif" font-size="14.00" fill="#000000">SpecificDatasModule</text>
</g>
<!-- GinaControllerDirective&#45;&gt;SpecificDatasModule -->
<g id="edge1" class="edge">
<title>GinaControllerDirective&#45;&gt;SpecificDatasModule</title>
<path fill="none" stroke="#000000" d="M288.6126,-122.1061C288.6126,-122.1061 288.6126,-140.991 288.6126,-140.991"/>
<polygon fill="#000000" stroke="#000000" points="285.1126,-140.9909 288.6126,-150.991 292.1126,-140.991 285.1126,-140.9909"/>
</g>
<!-- SpecificDatasComponent -->
<g id="node2" class="node">
<title>SpecificDatasComponent</title>
<polygon fill="#ffffb3" stroke="#000000" points="242.5716,-122 83.4284,-122 83.4284,-86 242.5716,-86 242.5716,-122"/>
<text text-anchor="middle" x="163" y="-99.8" font-family="Times,serif" font-size="14.00" fill="#000000">SpecificDatasComponent</text>
</g>
<!-- SpecificDatasComponent&#45;&gt;SpecificDatasModule -->
<g id="edge2" class="edge">
<title>SpecificDatasComponent&#45;&gt;SpecificDatasModule</title>
<path fill="none" stroke="#000000" d="M210.9457,-122.1061C210.9457,-122.1061 210.9457,-140.991 210.9457,-140.991"/>
<polygon fill="#000000" stroke="#000000" points="207.4457,-140.9909 210.9457,-150.991 214.4457,-140.991 207.4457,-140.9909"/>
</g>
<!-- SpecificDatasComponent  -->
<g id="node4" class="node">
<title>SpecificDatasComponent </title>
<polygon fill="#fb8072" stroke="#000000" points="329.0722,-252 166.9278,-252 166.9278,-216 329.0722,-216 329.0722,-252"/>
<text text-anchor="middle" x="248" y="-229.8" font-family="Times,serif" font-size="14.00" fill="#000000">SpecificDatasComponent </text>
</g>
<!-- SpecificDatasModule&#45;&gt;SpecificDatasComponent  -->
<g id="edge3" class="edge">
<title>SpecificDatasModule&#45;&gt;SpecificDatasComponent </title>
<path fill="none" stroke="#000000" stroke-dasharray="5,2" d="M248,-187.1061C248,-187.1061 248,-205.991 248,-205.991"/>
<polygon fill="#000000" stroke="#000000" points="244.5001,-205.9909 248,-215.991 251.5001,-205.991 244.5001,-205.9909"/>
</g>
</g>
</svg>
