<?xml version="1.0" encoding="UTF-8" standalone="no"?>
<!DOCTYPE svg PUBLIC "-//W3C//DTD SVG 1.1//EN"
 "http://www.w3.org/Graphics/SVG/1.1/DTD/svg11.dtd">
<!-- Generated by graphviz version 2.40.1 (20161225.0304)
 -->
<!-- Title: dependencies Pages: 1 -->
<svg width="504pt" height="284pt"
 viewBox="0.00 0.00 504.00 284.00" xmlns="http://www.w3.org/2000/svg" xmlns:xlink="http://www.w3.org/1999/xlink">
<g id="graph0" class="graph" transform="scale(1 1) rotate(0) translate(4 280)">
<title>dependencies</title>
<polygon fill="#ffffff" stroke="transparent" points="-4,4 -4,-280 500,-280 500,4 -4,4"/>
<text text-anchor="start" x="227.0091" y="-42.4" font-family="sans-serif" font-weight="bold" font-size="14.00" fill="#000000">Legend</text>
<polygon fill="#ffffb3" stroke="transparent" points="14,-10 14,-30 34,-30 34,-10 14,-10"/>
<text text-anchor="start" x="37.629" y="-15.4" font-family="sans-serif" font-size="14.00" fill="#000000"> &#160;Declarations</text>
<polygon fill="#8dd3c7" stroke="transparent" points="127,-10 127,-30 147,-30 147,-10 127,-10"/>
<text text-anchor="start" x="150.7251" y="-15.4" font-family="sans-serif" font-size="14.00" fill="#000000"> &#160;Module</text>
<polygon fill="#80b1d3" stroke="transparent" points="213,-10 213,-30 233,-30 233,-10 213,-10"/>
<text text-anchor="start" x="236.7812" y="-15.4" font-family="sans-serif" font-size="14.00" fill="#000000"> &#160;Bootstrap</text>
<polygon fill="#fdb462" stroke="transparent" points="310,-10 310,-30 330,-30 330,-10 310,-10"/>
<text text-anchor="start" x="333.6732" y="-15.4" font-family="sans-serif" font-size="14.00" fill="#000000"> &#160;Providers</text>
<polygon fill="#fb8072" stroke="transparent" points="406,-10 406,-30 426,-30 426,-10 406,-10"/>
<text text-anchor="start" x="429.7258" y="-15.4" font-family="sans-serif" font-size="14.00" fill="#000000"> &#160;Exports</text>
<g id="clust1" class="cluster">
<title>cluster_DecourseModule</title>
<polygon fill="none" stroke="#000000" stroke-dasharray="1,5" points="58.5,-70 58.5,-268 437.5,-268 437.5,-70 58.5,-70"/>
</g>
<g id="clust2" class="cluster">
<title>cluster_DecourseModule_declarations</title>
<polygon fill="none" stroke="#000000" points="66.5,-78 66.5,-130 429.5,-130 429.5,-78 66.5,-78"/>
</g>
<g id="clust6" class="cluster">
<title>cluster_DecourseModule_exports</title>
<polygon fill="none" stroke="#000000" points="156.5,-208 156.5,-260 310.5,-260 310.5,-208 156.5,-208"/>
</g>
<!-- DecourseAddModalComponent -->
<g id="node1" class="node">
<title>DecourseAddModalComponent</title>
<polygon fill="#ffffb3" stroke="#000000" points="421.8445,-122 227.1555,-122 227.1555,-86 421.8445,-86 421.8445,-122"/>
<text text-anchor="middle" x="324.5" y="-99.8" font-family="Times,serif" font-size="14.00" fill="#000000">DecourseAddModalComponent</text>
</g>
<!-- DecourseModule -->
<g id="node3" class="node">
<title>DecourseModule</title>
<polygon fill="#8dd3c7" stroke="#000000" points="289.9061,-187 286.9061,-191 265.9061,-191 262.9061,-187 177.0939,-187 177.0939,-151 289.9061,-151 289.9061,-187"/>
<text text-anchor="middle" x="233.5" y="-164.8" font-family="Times,serif" font-size="14.00" fill="#000000">DecourseModule</text>
</g>
<!-- DecourseAddModalComponent&#45;&gt;DecourseModule -->
<g id="edge1" class="edge">
<title>DecourseAddModalComponent&#45;&gt;DecourseModule</title>
<path fill="none" stroke="#000000" d="M258.3903,-122.1061C258.3903,-122.1061 258.3903,-140.991 258.3903,-140.991"/>
<polygon fill="#000000" stroke="#000000" points="254.8903,-140.9909 258.3903,-150.991 261.8903,-140.991 254.8903,-140.9909"/>
</g>
<!-- DecourseComponent -->
<g id="node2" class="node">
<title>DecourseComponent</title>
<polygon fill="#ffffb3" stroke="#000000" points="208.6881,-122 74.3119,-122 74.3119,-86 208.6881,-86 208.6881,-122"/>
<text text-anchor="middle" x="141.5" y="-99.8" font-family="Times,serif" font-size="14.00" fill="#000000">DecourseComponent</text>
</g>
<!-- DecourseComponent&#45;&gt;DecourseModule -->
<g id="edge2" class="edge">
<title>DecourseComponent&#45;&gt;DecourseModule</title>
<path fill="none" stroke="#000000" d="M192.9457,-122.1061C192.9457,-122.1061 192.9457,-140.991 192.9457,-140.991"/>
<polygon fill="#000000" stroke="#000000" points="189.4457,-140.9909 192.9457,-150.991 196.4457,-140.991 189.4457,-140.9909"/>
</g>
<!-- DecourseComponent  -->
<g id="node4" class="node">
<title>DecourseComponent </title>
<polygon fill="#fb8072" stroke="#000000" points="302.1884,-252 164.8116,-252 164.8116,-216 302.1884,-216 302.1884,-252"/>
<text text-anchor="middle" x="233.5" y="-229.8" font-family="Times,serif" font-size="14.00" fill="#000000">DecourseComponent </text>
</g>
<!-- DecourseModule&#45;&gt;DecourseComponent  -->
<g id="edge3" class="edge">
<title>DecourseModule&#45;&gt;DecourseComponent </title>
<path fill="none" stroke="#000000" stroke-dasharray="5,2" d="M233.5,-187.1061C233.5,-187.1061 233.5,-205.991 233.5,-205.991"/>
<polygon fill="#000000" stroke="#000000" points="230.0001,-205.9909 233.5,-215.991 237.0001,-205.991 230.0001,-205.9909"/>
</g>
</g>
</svg>
