<?xml version="1.0" encoding="UTF-8" standalone="no"?>
<!DOCTYPE svg PUBLIC "-//W3C//DTD SVG 1.1//EN"
 "http://www.w3.org/Graphics/SVG/1.1/DTD/svg11.dtd">
<!-- Generated by graphviz version 2.40.1 (20161225.0304)
 -->
<!-- Title: dependencies Pages: 1 -->
<svg width="920pt" height="284pt"
 viewBox="0.00 0.00 920.00 284.00" xmlns="http://www.w3.org/2000/svg" xmlns:xlink="http://www.w3.org/1999/xlink">
<g id="graph0" class="graph" transform="scale(1 1) rotate(0) translate(4 280)">
<title>dependencies</title>
<polygon fill="#ffffff" stroke="transparent" points="-4,4 -4,-280 916,-280 916,4 -4,4"/>
<text text-anchor="start" x="435.0091" y="-42.4" font-family="sans-serif" font-weight="bold" font-size="14.00" fill="#000000">Legend</text>
<polygon fill="#ffffb3" stroke="transparent" points="222,-10 222,-30 242,-30 242,-10 222,-10"/>
<text text-anchor="start" x="245.629" y="-15.4" font-family="sans-serif" font-size="14.00" fill="#000000"> &#160;Declarations</text>
<polygon fill="#8dd3c7" stroke="transparent" points="335,-10 335,-30 355,-30 355,-10 335,-10"/>
<text text-anchor="start" x="358.7251" y="-15.4" font-family="sans-serif" font-size="14.00" fill="#000000"> &#160;Module</text>
<polygon fill="#80b1d3" stroke="transparent" points="421,-10 421,-30 441,-30 441,-10 421,-10"/>
<text text-anchor="start" x="444.7812" y="-15.4" font-family="sans-serif" font-size="14.00" fill="#000000"> &#160;Bootstrap</text>
<polygon fill="#fdb462" stroke="transparent" points="518,-10 518,-30 538,-30 538,-10 518,-10"/>
<text text-anchor="start" x="541.6732" y="-15.4" font-family="sans-serif" font-size="14.00" fill="#000000"> &#160;Providers</text>
<polygon fill="#fb8072" stroke="transparent" points="614,-10 614,-30 634,-30 634,-10 614,-10"/>
<text text-anchor="start" x="637.7258" y="-15.4" font-family="sans-serif" font-size="14.00" fill="#000000"> &#160;Exports</text>
<g id="clust1" class="cluster">
<title>cluster_CareModule</title>
<polygon fill="none" stroke="#000000" stroke-dasharray="1,5" points="8,-70 8,-268 904,-268 904,-70 8,-70"/>
</g>
<g id="clust2" class="cluster">
<title>cluster_CareModule_declarations</title>
<polygon fill="none" stroke="#000000" points="16,-78 16,-130 896,-130 896,-78 16,-78"/>
</g>
<g id="clust9" class="cluster">
<title>cluster_CareModule_exports</title>
<polygon fill="none" stroke="#000000" points="402,-208 402,-260 530,-260 530,-208 402,-208"/>
</g>
<!-- CareComponent -->
<g id="node1" class="node">
<title>CareComponent</title>
<polygon fill="#ffffb3" stroke="#000000" points="887.7591,-122 780.2409,-122 780.2409,-86 887.7591,-86 887.7591,-122"/>
<text text-anchor="middle" x="834" y="-99.8" font-family="Times,serif" font-size="14.00" fill="#000000">CareComponent</text>
</g>
<!-- CareModule -->
<g id="node6" class="node">
<title>CareModule</title>
<polygon fill="#8dd3c7" stroke="#000000" points="508.9762,-187 505.9762,-191 484.9762,-191 481.9762,-187 423.0238,-187 423.0238,-151 508.9762,-151 508.9762,-187"/>
<text text-anchor="middle" x="466" y="-164.8" font-family="Times,serif" font-size="14.00" fill="#000000">CareModule</text>
</g>
<!-- CareComponent&#45;&gt;CareModule -->
<g id="edge1" class="edge">
<title>CareComponent&#45;&gt;CareModule</title>
<path fill="none" stroke="#000000" d="M834,-122.2843C834,-143.3211 834,-175 834,-175 834,-175 519.2964,-175 519.2964,-175"/>
<polygon fill="#000000" stroke="#000000" points="519.2965,-171.5001 509.2964,-175 519.2964,-178.5001 519.2965,-171.5001"/>
</g>
<!-- CarePlanAddModalComponent -->
<g id="node2" class="node">
<title>CarePlanAddModalComponent</title>
<polygon fill="#ffffb3" stroke="#000000" points="761.8032,-122 568.1968,-122 568.1968,-86 761.8032,-86 761.8032,-122"/>
<text text-anchor="middle" x="665" y="-99.8" font-family="Times,serif" font-size="14.00" fill="#000000">CarePlanAddModalComponent</text>
</g>
<!-- CarePlanAddModalComponent&#45;&gt;CareModule -->
<g id="edge2" class="edge">
<title>CarePlanAddModalComponent&#45;&gt;CareModule</title>
<path fill="none" stroke="#000000" d="M665,-122.0225C665,-139.3734 665,-163 665,-163 665,-163 519.18,-163 519.18,-163"/>
<polygon fill="#000000" stroke="#000000" points="519.1801,-159.5001 509.18,-163 519.18,-166.5001 519.1801,-159.5001"/>
</g>
<!-- GoalAddModalComponent -->
<g id="node3" class="node">
<title>GoalAddModalComponent</title>
<polygon fill="#ffffb3" stroke="#000000" points="550.7007,-122 381.2993,-122 381.2993,-86 550.7007,-86 550.7007,-122"/>
<text text-anchor="middle" x="466" y="-99.8" font-family="Times,serif" font-size="14.00" fill="#000000">GoalAddModalComponent</text>
</g>
<!-- GoalAddModalComponent&#45;&gt;CareModule -->
<g id="edge3" class="edge">
<title>GoalAddModalComponent&#45;&gt;CareModule</title>
<path fill="none" stroke="#000000" d="M466,-122.1061C466,-122.1061 466,-140.991 466,-140.991"/>
<polygon fill="#000000" stroke="#000000" points="462.5001,-140.9909 466,-150.991 469.5001,-140.991 462.5001,-140.9909"/>
</g>
<!-- OdAddModalComponent -->
<g id="node4" class="node">
<title>OdAddModalComponent</title>
<polygon fill="#ffffb3" stroke="#000000" points="363.5954,-122 204.4046,-122 204.4046,-86 363.5954,-86 363.5954,-122"/>
<text text-anchor="middle" x="284" y="-99.8" font-family="Times,serif" font-size="14.00" fill="#000000">OdAddModalComponent</text>
</g>
<!-- OdAddModalComponent&#45;&gt;CareModule -->
<g id="edge4" class="edge">
<title>OdAddModalComponent&#45;&gt;CareModule</title>
<path fill="none" stroke="#000000" d="M284,-122.0225C284,-139.3734 284,-163 284,-163 284,-163 412.8685,-163 412.8685,-163"/>
<polygon fill="#000000" stroke="#000000" points="412.8686,-166.5001 422.8685,-163 412.8685,-159.5001 412.8686,-166.5001"/>
</g>
<!-- RequestModalComponent -->
<g id="node5" class="node">
<title>RequestModalComponent</title>
<polygon fill="#ffffb3" stroke="#000000" points="186.4832,-122 23.5168,-122 23.5168,-86 186.4832,-86 186.4832,-122"/>
<text text-anchor="middle" x="105" y="-99.8" font-family="Times,serif" font-size="14.00" fill="#000000">RequestModalComponent</text>
</g>
<!-- RequestModalComponent&#45;&gt;CareModule -->
<g id="edge5" class="edge">
<title>RequestModalComponent&#45;&gt;CareModule</title>
<path fill="none" stroke="#000000" d="M105,-122.2843C105,-143.3211 105,-175 105,-175 105,-175 412.8135,-175 412.8135,-175"/>
<polygon fill="#000000" stroke="#000000" points="412.8136,-178.5001 422.8135,-175 412.8135,-171.5001 412.8136,-178.5001"/>
</g>
<!-- CareComponent  -->
<g id="node7" class="node">
<title>CareComponent </title>
<polygon fill="#fb8072" stroke="#000000" points="521.7591,-252 410.2409,-252 410.2409,-216 521.7591,-216 521.7591,-252"/>
<text text-anchor="middle" x="466" y="-229.8" font-family="Times,serif" font-size="14.00" fill="#000000">CareComponent </text>
</g>
<!-- CareModule&#45;&gt;CareComponent  -->
<g id="edge6" class="edge">
<title>CareModule&#45;&gt;CareComponent </title>
<path fill="none" stroke="#000000" stroke-dasharray="5,2" d="M466,-187.1061C466,-187.1061 466,-205.991 466,-205.991"/>
<polygon fill="#000000" stroke="#000000" points="462.5001,-205.9909 466,-215.991 469.5001,-205.991 462.5001,-205.9909"/>
</g>
</g>
</svg>
