<?xml version="1.0" encoding="UTF-8" standalone="no"?>
<!DOCTYPE svg PUBLIC "-//W3C//DTD SVG 1.1//EN"
 "http://www.w3.org/Graphics/SVG/1.1/DTD/svg11.dtd">
<!-- Generated by graphviz version 2.40.1 (20161225.0304)
 -->
<!-- Title: dependencies Pages: 1 -->
<svg width="1212pt" height="284pt"
 viewBox="0.00 0.00 1212.00 284.00" xmlns="http://www.w3.org/2000/svg" xmlns:xlink="http://www.w3.org/1999/xlink">
<g id="graph0" class="graph" transform="scale(1 1) rotate(0) translate(4 280)">
<title>dependencies</title>
<polygon fill="#ffffff" stroke="transparent" points="-4,4 -4,-280 1208,-280 1208,4 -4,4"/>
<text text-anchor="start" x="581.0091" y="-42.4" font-family="sans-serif" font-weight="bold" font-size="14.00" fill="#000000">Legend</text>
<polygon fill="#ffffb3" stroke="transparent" points="368,-10 368,-30 388,-30 388,-10 368,-10"/>
<text text-anchor="start" x="391.629" y="-15.4" font-family="sans-serif" font-size="14.00" fill="#000000"> &#160;Declarations</text>
<polygon fill="#8dd3c7" stroke="transparent" points="481,-10 481,-30 501,-30 501,-10 481,-10"/>
<text text-anchor="start" x="504.7251" y="-15.4" font-family="sans-serif" font-size="14.00" fill="#000000"> &#160;Module</text>
<polygon fill="#80b1d3" stroke="transparent" points="567,-10 567,-30 587,-30 587,-10 567,-10"/>
<text text-anchor="start" x="590.7812" y="-15.4" font-family="sans-serif" font-size="14.00" fill="#000000"> &#160;Bootstrap</text>
<polygon fill="#fdb462" stroke="transparent" points="664,-10 664,-30 684,-30 684,-10 664,-10"/>
<text text-anchor="start" x="687.6732" y="-15.4" font-family="sans-serif" font-size="14.00" fill="#000000"> &#160;Providers</text>
<polygon fill="#fb8072" stroke="transparent" points="760,-10 760,-30 780,-30 780,-10 760,-10"/>
<text text-anchor="start" x="783.7258" y="-15.4" font-family="sans-serif" font-size="14.00" fill="#000000"> &#160;Exports</text>
<g id="clust1" class="cluster">
<title>cluster_MedicalChartModule</title>
<polygon fill="none" stroke="#000000" stroke-dasharray="1,5" points="8,-70 8,-268 1196,-268 1196,-70 8,-70"/>
</g>
<g id="clust2" class="cluster">
<title>cluster_MedicalChartModule_declarations</title>
<polygon fill="none" stroke="#000000" points="178,-78 178,-130 1188,-130 1188,-78 178,-78"/>
</g>
<g id="clust8" class="cluster">
<title>cluster_MedicalChartModule_imports</title>
<polygon fill="none" stroke="#000000" points="16,-78 16,-130 170,-130 170,-78 16,-78"/>
</g>
<g id="clust9" class="cluster">
<title>cluster_MedicalChartModule_exports</title>
<polygon fill="none" stroke="#000000" points="516,-208 516,-260 694,-260 694,-208 516,-208"/>
</g>
<!-- AppointmentModalComponent -->
<g id="node1" class="node">
<title>AppointmentModalComponent</title>
<polygon fill="#ffffb3" stroke="#000000" points="1179.7659,-122 988.2341,-122 988.2341,-86 1179.7659,-86 1179.7659,-122"/>
<text text-anchor="middle" x="1084" y="-99.8" font-family="Times,serif" font-size="14.00" fill="#000000">AppointmentModalComponent</text>
</g>
<!-- MedicalChartModule -->
<g id="node6" class="node">
<title>MedicalChartModule</title>
<polygon fill="#8dd3c7" stroke="#000000" points="673.0226,-187 670.0226,-191 649.0226,-191 646.0226,-187 536.9774,-187 536.9774,-151 673.0226,-151 673.0226,-187"/>
<text text-anchor="middle" x="605" y="-164.8" font-family="Times,serif" font-size="14.00" fill="#000000">MedicalChartModule</text>
</g>
<!-- AppointmentModalComponent&#45;&gt;MedicalChartModule -->
<g id="edge1" class="edge">
<title>AppointmentModalComponent&#45;&gt;MedicalChartModule</title>
<path fill="none" stroke="#000000" d="M1084,-122.2843C1084,-143.3211 1084,-175 1084,-175 1084,-175 683.1203,-175 683.1203,-175"/>
<polygon fill="#000000" stroke="#000000" points="683.1204,-171.5001 673.1203,-175 683.1203,-178.5001 683.1204,-171.5001"/>
</g>
<!-- ConditionModalComponent -->
<g id="node2" class="node">
<title>ConditionModalComponent</title>
<polygon fill="#ffffb3" stroke="#000000" points="969.8906,-122 796.1094,-122 796.1094,-86 969.8906,-86 969.8906,-122"/>
<text text-anchor="middle" x="883" y="-99.8" font-family="Times,serif" font-size="14.00" fill="#000000">ConditionModalComponent</text>
</g>
<!-- ConditionModalComponent&#45;&gt;MedicalChartModule -->
<g id="edge2" class="edge">
<title>ConditionModalComponent&#45;&gt;MedicalChartModule</title>
<path fill="none" stroke="#000000" d="M883,-122.0225C883,-139.3734 883,-163 883,-163 883,-163 683.3625,-163 683.3625,-163"/>
<polygon fill="#000000" stroke="#000000" points="683.3625,-159.5001 673.3625,-163 683.3625,-166.5001 683.3625,-159.5001"/>
</g>
<!-- MedicalChartComponent -->
<g id="node3" class="node">
<title>MedicalChartComponent</title>
<polygon fill="#ffffb3" stroke="#000000" points="778.3047,-122 619.6953,-122 619.6953,-86 778.3047,-86 778.3047,-122"/>
<text text-anchor="middle" x="699" y="-99.8" font-family="Times,serif" font-size="14.00" fill="#000000">MedicalChartComponent</text>
</g>
<!-- MedicalChartComponent&#45;&gt;MedicalChartModule -->
<g id="edge3" class="edge">
<title>MedicalChartComponent&#45;&gt;MedicalChartModule</title>
<path fill="none" stroke="#000000" d="M646.5544,-122.1061C646.5544,-122.1061 646.5544,-140.991 646.5544,-140.991"/>
<polygon fill="#000000" stroke="#000000" points="643.0544,-140.9909 646.5544,-150.991 650.0544,-140.991 643.0544,-140.9909"/>
</g>
<!-- MedicationModalComponent -->
<g id="node4" class="node">
<title>MedicationModalComponent</title>
<polygon fill="#ffffb3" stroke="#000000" points="601.6428,-122 420.3572,-122 420.3572,-86 601.6428,-86 601.6428,-122"/>
<text text-anchor="middle" x="511" y="-99.8" font-family="Times,serif" font-size="14.00" fill="#000000">MedicationModalComponent</text>
</g>
<!-- MedicationModalComponent&#45;&gt;MedicalChartModule -->
<g id="edge4" class="edge">
<title>MedicationModalComponent&#45;&gt;MedicalChartModule</title>
<path fill="none" stroke="#000000" d="M569.2802,-122.1061C569.2802,-122.1061 569.2802,-140.991 569.2802,-140.991"/>
<polygon fill="#000000" stroke="#000000" points="565.7802,-140.9909 569.2802,-150.991 572.7802,-140.991 565.7802,-140.9909"/>
</g>
<!-- TakedMedicationModalComponent -->
<g id="node5" class="node">
<title>TakedMedicationModalComponent</title>
<polygon fill="#ffffb3" stroke="#000000" points="402.1245,-122 185.8755,-122 185.8755,-86 402.1245,-86 402.1245,-122"/>
<text text-anchor="middle" x="294" y="-99.8" font-family="Times,serif" font-size="14.00" fill="#000000">TakedMedicationModalComponent</text>
</g>
<!-- TakedMedicationModalComponent&#45;&gt;MedicalChartModule -->
<g id="edge5" class="edge">
<title>TakedMedicationModalComponent&#45;&gt;MedicalChartModule</title>
<path fill="none" stroke="#000000" d="M294,-122.0225C294,-139.3734 294,-163 294,-163 294,-163 526.7497,-163 526.7497,-163"/>
<polygon fill="#000000" stroke="#000000" points="526.7498,-166.5001 536.7497,-163 526.7497,-159.5001 526.7498,-166.5001"/>
</g>
<!-- MedicalChartComponent  -->
<g id="node8" class="node">
<title>MedicalChartComponent </title>
<polygon fill="#fb8072" stroke="#000000" points="685.8045,-252 524.1955,-252 524.1955,-216 685.8045,-216 685.8045,-252"/>
<text text-anchor="middle" x="605" y="-229.8" font-family="Times,serif" font-size="14.00" fill="#000000">MedicalChartComponent </text>
</g>
<!-- MedicalChartModule&#45;&gt;MedicalChartComponent  -->
<g id="edge7" class="edge">
<title>MedicalChartModule&#45;&gt;MedicalChartComponent </title>
<path fill="none" stroke="#000000" stroke-dasharray="5,2" d="M605,-187.1061C605,-187.1061 605,-205.991 605,-205.991"/>
<polygon fill="#000000" stroke="#000000" points="601.5001,-205.9909 605,-215.991 608.5001,-205.991 601.5001,-205.9909"/>
</g>
<!-- SpecificDatasModule -->
<g id="node7" class="node">
<title>SpecificDatasModule</title>
<polygon fill="#8dd3c7" stroke="#000000" points="161.7893,-122 158.7893,-126 137.7893,-126 134.7893,-122 24.2107,-122 24.2107,-86 161.7893,-86 161.7893,-122"/>
<text text-anchor="middle" x="93" y="-99.8" font-family="Times,serif" font-size="14.00" fill="#000000">SpecificDatasModule</text>
</g>
<!-- SpecificDatasModule&#45;&gt;MedicalChartModule -->
<g id="edge6" class="edge">
<title>SpecificDatasModule&#45;&gt;MedicalChartModule</title>
<path fill="none" stroke="#000000" d="M93,-122.2843C93,-143.3211 93,-175 93,-175 93,-175 526.7457,-175 526.7457,-175"/>
<polygon fill="#000000" stroke="#000000" points="526.7457,-178.5001 536.7457,-175 526.7457,-171.5001 526.7457,-178.5001"/>
</g>
</g>
</svg>
